M48
; DRILL file {KiCad 8.0.0} date 2024-03-07T23:13:02+0200
; FORMAT={-:-/ absolute / metric / decimal}
; #@! TF.CreationDate,2024-03-07T23:13:02+02:00
; #@! TF.GenerationSoftware,Kicad,Pcbnew,8.0.0
; #@! TF.FileFunction,MixedPlating,1,2
FMAT,2
METRIC
; #@! TA.AperFunction,Plated,PTH,ViaDrill
T1C0.300
; #@! TA.AperFunction,Plated,PTH,ComponentDrill
T2C0.762
; #@! TA.AperFunction,Plated,PTH,ComponentDrill
T3C0.800
; #@! TA.AperFunction,Plated,PTH,ComponentDrill
T4C1.000
; #@! TA.AperFunction,Plated,PTH,ComponentDrill
T5C1.100
; #@! TA.AperFunction,NonPlated,NPTH,ComponentDrill
T6C3.000
; #@! TA.AperFunction,NonPlated,NPTH,ComponentDrill
T7C3.500
%
G90
G05
T1
X142.53Y-85.79
X145.23Y-87.49
X158.63Y-110.29
X160.23Y-94.69
T2
X121.12Y-65.24
X121.12Y-90.64
X123.66Y-65.24
X123.66Y-90.64
X126.2Y-65.24
X126.2Y-90.64
X128.74Y-65.24
X128.74Y-90.64
X131.28Y-65.24
X131.28Y-90.64
X133.82Y-65.24
X133.82Y-90.64
X136.36Y-65.24
X136.36Y-90.64
X138.9Y-65.24
X138.9Y-90.64
X141.44Y-65.24
X141.44Y-90.64
X143.98Y-65.24
X143.98Y-90.64
X146.52Y-65.24
X146.52Y-90.64
X149.06Y-65.24
X149.06Y-90.64
X151.6Y-65.24
X151.6Y-90.64
X154.14Y-65.24
X154.14Y-90.64
X156.68Y-65.24
X156.68Y-90.64
T3
X112.705Y-140.495
X112.83Y-145.19
X112.93Y-128.68
X112.93Y-136.3
X115.37Y-145.19
X115.87Y-93.99
X115.87Y-97.49
X116.43Y-128.68
X116.43Y-136.3
X117.705Y-140.495
X117.91Y-145.19
X119.93Y-128.68
X119.93Y-136.3
X120.45Y-145.19
X122.99Y-145.19
X123.43Y-128.68
X123.43Y-136.3
X123.49Y-93.99
X123.49Y-97.49
X129.83Y-145.19
X129.93Y-128.68
X129.93Y-136.3
X129.93Y-140.485
X132.37Y-145.19
X133.39Y-108.87
X133.39Y-116.49
X133.43Y-128.68
X133.43Y-136.3
X134.91Y-145.19
X134.93Y-140.485
X135.93Y-108.87
X135.93Y-116.49
X136.93Y-128.68
X136.93Y-136.3
X137.45Y-145.19
X138.47Y-108.87
X138.47Y-116.49
X139.99Y-145.19
X140.43Y-128.68
X140.43Y-136.3
X141.01Y-108.87
X141.01Y-116.49
X141.93Y-56.69
X141.93Y-61.69
X143.55Y-108.87
X143.55Y-116.49
X146.09Y-108.87
X146.09Y-116.49
X146.33Y-145.19
X146.43Y-128.68
X146.43Y-136.3
X146.45Y-140.485
X146.58Y-56.69
X146.58Y-61.69
X148.63Y-108.87
X148.63Y-116.49
X148.87Y-145.19
X149.93Y-128.68
X149.93Y-136.3
X151.41Y-145.19
X151.45Y-140.485
X151.73Y-94.69
X153.33Y-57.44
X153.33Y-60.94
X153.43Y-110.29
X153.43Y-115.29
X153.43Y-128.68
X153.43Y-136.3
X153.95Y-145.19
X156.49Y-145.19
X156.73Y-94.69
X156.93Y-128.68
X156.93Y-136.3
X161.93Y-138.39
X162.777Y-144.99
X166.277Y-144.99
X166.93Y-138.39
T4
X121.655Y-140.495
X124.195Y-140.495
X138.93Y-140.49
X141.47Y-140.49
X155.655Y-140.495
X158.195Y-140.495
X164.43Y-129.135
X164.43Y-131.675
X164.43Y-134.215
T5
X112.33Y-153.29
X123.53Y-153.29
X129.33Y-153.29
X140.53Y-153.29
X145.83Y-153.29
X157.03Y-153.29
X162.18Y-151.09
X165.68Y-151.09
T6
X113.41Y-149.99
X122.41Y-149.99
X130.41Y-149.99
X139.41Y-149.99
X146.91Y-149.99
X155.91Y-149.99
T7
X112.43Y-58.99
X112.43Y-118.99
X164.43Y-58.99
X164.43Y-118.99
M30
