%TF.GenerationSoftware,KiCad,Pcbnew,8.0.0*%
%TF.CreationDate,2024-03-07T23:13:00+02:00*%
%TF.ProjectId,touchdro-board,746f7563-6864-4726-9f2d-626f6172642e,rev?*%
%TF.SameCoordinates,Original*%
%TF.FileFunction,Copper,L1,Top*%
%TF.FilePolarity,Positive*%
%FSLAX46Y46*%
G04 Gerber Fmt 4.6, Leading zero omitted, Abs format (unit mm)*
G04 Created by KiCad (PCBNEW 8.0.0) date 2024-03-07 23:13:00*
%MOMM*%
%LPD*%
G01*
G04 APERTURE LIST*
G04 Aperture macros list*
%AMRoundRect*
0 Rectangle with rounded corners*
0 $1 Rounding radius*
0 $2 $3 $4 $5 $6 $7 $8 $9 X,Y pos of 4 corners*
0 Add a 4 corners polygon primitive as box body*
4,1,4,$2,$3,$4,$5,$6,$7,$8,$9,$2,$3,0*
0 Add four circle primitives for the rounded corners*
1,1,$1+$1,$2,$3*
1,1,$1+$1,$4,$5*
1,1,$1+$1,$6,$7*
1,1,$1+$1,$8,$9*
0 Add four rect primitives between the rounded corners*
20,1,$1+$1,$2,$3,$4,$5,0*
20,1,$1+$1,$4,$5,$6,$7,0*
20,1,$1+$1,$6,$7,$8,$9,0*
20,1,$1+$1,$8,$9,$2,$3,0*%
G04 Aperture macros list end*
%TA.AperFunction,ComponentPad*%
%ADD10C,1.600000*%
%TD*%
%TA.AperFunction,ComponentPad*%
%ADD11R,1.600000X1.600000*%
%TD*%
%TA.AperFunction,ComponentPad*%
%ADD12O,1.600000X1.600000*%
%TD*%
%TA.AperFunction,ComponentPad*%
%ADD13R,2.500000X2.000000*%
%TD*%
%TA.AperFunction,ComponentPad*%
%ADD14R,2.000000X1.700000*%
%TD*%
%TA.AperFunction,ComponentPad*%
%ADD15O,2.000000X1.700000*%
%TD*%
%TA.AperFunction,ComponentPad*%
%ADD16R,1.300000X2.000000*%
%TD*%
%TA.AperFunction,ComponentPad*%
%ADD17O,1.300000X2.000000*%
%TD*%
%TA.AperFunction,ComponentPad*%
%ADD18R,1.700000X2.000000*%
%TD*%
%TA.AperFunction,ComponentPad*%
%ADD19O,1.700000X2.000000*%
%TD*%
%TA.AperFunction,ComponentPad*%
%ADD20RoundRect,0.229659X0.470341X-0.770341X0.470341X0.770341X-0.470341X0.770341X-0.470341X-0.770341X0*%
%TD*%
%TA.AperFunction,ComponentPad*%
%ADD21O,2.200000X3.000000*%
%TD*%
%TA.AperFunction,ViaPad*%
%ADD22C,0.800000*%
%TD*%
%TA.AperFunction,Conductor*%
%ADD23C,0.400000*%
%TD*%
G04 APERTURE END LIST*
D10*
%TO.P,C4,1*%
%TO.N,+3V3*%
X146580000Y-61690000D03*
%TO.P,C4,2*%
%TO.N,GND*%
X146580000Y-56690000D03*
%TD*%
D11*
%TO.P,C6,1*%
%TO.N,+5V*%
X162777349Y-144990000D03*
D10*
%TO.P,C6,2*%
%TO.N,GND*%
X166277349Y-144990000D03*
%TD*%
%TO.P,R13,1*%
%TO.N,/Y_CLK*%
X136930000Y-136300000D03*
D12*
%TO.P,R13,2*%
%TO.N,/SCALE_VIN*%
X136930000Y-128680000D03*
%TD*%
D10*
%TO.P,C5,1*%
%TO.N,+3V3*%
X141930000Y-61690000D03*
%TO.P,C5,2*%
%TO.N,GND*%
X141930000Y-56690000D03*
%TD*%
%TO.P,R2,1*%
%TO.N,/X_D*%
X116430000Y-136300000D03*
D12*
%TO.P,R2,2*%
%TO.N,Net-(R2-Pad2)*%
X116430000Y-128680000D03*
%TD*%
D10*
%TO.P,R12,1*%
%TO.N,/X_D*%
X112930000Y-136300000D03*
D12*
%TO.P,R12,2*%
%TO.N,/SCALE_VIN*%
X112930000Y-128680000D03*
%TD*%
D10*
%TO.P,C1,1*%
%TO.N,+3V3*%
X153430000Y-110290000D03*
%TO.P,C1,2*%
%TO.N,GND*%
X153430000Y-115290000D03*
%TD*%
%TO.P,C2,1*%
%TO.N,/SCALE_VIN*%
X112705000Y-140495000D03*
%TO.P,C2,2*%
%TO.N,GND*%
X117705000Y-140495000D03*
%TD*%
%TO.P,J1,1,VBUS*%
%TO.N,/SCALE_VIN*%
X112830000Y-145190000D03*
%TO.P,J1,2,D-*%
%TO.N,/X_D*%
X115370000Y-145190000D03*
%TO.P,J1,3,D+*%
%TO.N,/X_CLK*%
X117910000Y-145190000D03*
%TO.P,J1,4,ID*%
%TO.N,unconnected-(J1-ID-Pad4)*%
X120450000Y-145190000D03*
%TO.P,J1,5,GND*%
%TO.N,GND*%
X122990000Y-145190000D03*
D13*
%TO.P,J1,6,Shield*%
X112330000Y-153290000D03*
X123530000Y-153290000D03*
%TD*%
D10*
%TO.P,C9,1*%
%TO.N,/SCALE_VIN*%
X129930000Y-140485000D03*
%TO.P,C9,2*%
%TO.N,GND*%
X134930000Y-140485000D03*
%TD*%
D14*
%TO.P,J20,1,Pin_1*%
%TO.N,+5V*%
X164430000Y-134215000D03*
D15*
%TO.P,J20,2,Pin_2*%
%TO.N,/SCALE_VIN*%
X164430000Y-131675000D03*
%TO.P,J20,3,Pin_3*%
%TO.N,+3V3*%
X164430000Y-129135000D03*
%TD*%
D16*
%TO.P,U1,1*%
%TO.N,Net-(R1-Pad2)*%
X133390000Y-116490000D03*
D17*
%TO.P,U1,2*%
%TO.N,/X_CLOCK_IN*%
X135930000Y-116490000D03*
%TO.P,U1,3*%
%TO.N,Net-(R2-Pad2)*%
X138470000Y-116490000D03*
%TO.P,U1,4*%
%TO.N,/X_DATA*%
X141010000Y-116490000D03*
%TO.P,U1,5*%
%TO.N,Net-(R15-Pad2)*%
X143550000Y-116490000D03*
%TO.P,U1,6*%
%TO.N,/Y_CLOCK_IN*%
X146090000Y-116490000D03*
%TO.P,U1,7,GND*%
%TO.N,GND*%
X148630000Y-116490000D03*
%TO.P,U1,8*%
%TO.N,/Y_DATA*%
X148630000Y-108870000D03*
%TO.P,U1,9*%
%TO.N,Net-(R16-Pad2)*%
X146090000Y-108870000D03*
%TO.P,U1,10*%
%TO.N,/Z_CLOCK_IN*%
X143550000Y-108870000D03*
%TO.P,U1,11*%
%TO.N,Net-(R19-Pad2)*%
X141010000Y-108870000D03*
%TO.P,U1,12*%
%TO.N,/Z_DATA*%
X138470000Y-108870000D03*
%TO.P,U1,13*%
%TO.N,Net-(R20-Pad2)*%
X135930000Y-108870000D03*
%TO.P,U1,14,VCC*%
%TO.N,+3V3*%
X133390000Y-108870000D03*
%TD*%
D10*
%TO.P,C7,1*%
%TO.N,+5V*%
X156730000Y-94690000D03*
%TO.P,C7,2*%
%TO.N,GND*%
X151730000Y-94690000D03*
%TD*%
%TO.P,C10,1*%
%TO.N,/SCALE_VIN*%
X146450000Y-140485000D03*
%TO.P,C10,2*%
%TO.N,GND*%
X151450000Y-140485000D03*
%TD*%
%TO.P,R17,1*%
%TO.N,/Z_CLK*%
X153430000Y-136300000D03*
D12*
%TO.P,R17,2*%
%TO.N,/SCALE_VIN*%
X153430000Y-128680000D03*
%TD*%
D10*
%TO.P,R19,1*%
%TO.N,/Z_CLK*%
X156930000Y-136300000D03*
D12*
%TO.P,R19,2*%
%TO.N,Net-(R19-Pad2)*%
X156930000Y-128680000D03*
%TD*%
D18*
%TO.P,JP1,1,A*%
%TO.N,/X_CLK*%
X121655000Y-140495000D03*
D19*
%TO.P,JP1,2,B*%
%TO.N,/X_CLOCK_OUT*%
X124195000Y-140495000D03*
%TD*%
D10*
%TO.P,R1,1*%
%TO.N,/X_CLK*%
X123430000Y-136300000D03*
D12*
%TO.P,R1,2*%
%TO.N,Net-(R1-Pad2)*%
X123430000Y-128680000D03*
%TD*%
D20*
%TO.P,U3,1,EN*%
%TO.N,unconnected-(U3-EN-Pad1)*%
X121120000Y-90640000D03*
%TO.P,U3,2,SENSOR_VP*%
%TO.N,/SEN_VP*%
X123660000Y-90640000D03*
%TO.P,U3,3,SENSOR_VN*%
%TO.N,/SEN_VN*%
X126200000Y-90640000D03*
%TO.P,U3,4,IO34*%
%TO.N,unconnected-(U3-IO34-Pad4)*%
X128740000Y-90640000D03*
%TO.P,U3,5,IO35*%
%TO.N,/Z_CLOCK_IN*%
X131280000Y-90640000D03*
%TO.P,U3,6,IO32*%
%TO.N,/Y_CLOCK_IN*%
X133820000Y-90640000D03*
%TO.P,U3,7,IO33*%
%TO.N,/X_CLOCK_IN*%
X136360000Y-90640000D03*
%TO.P,U3,8,IO25*%
%TO.N,/X_CLOCK_OUT*%
X138900000Y-90640000D03*
%TO.P,U3,9,IO26*%
%TO.N,/X_DATA*%
X141440000Y-90640000D03*
%TO.P,U3,10,IO27*%
%TO.N,/Y_CLOCK_OUT*%
X143980000Y-90640000D03*
%TO.P,U3,11,IO14*%
%TO.N,unconnected-(U3-IO14-Pad11)*%
X146520000Y-90640000D03*
%TO.P,U3,12,IO12*%
%TO.N,unconnected-(U3-IO12-Pad12)*%
X149060000Y-90640000D03*
%TO.P,U3,13,IO13*%
%TO.N,unconnected-(U3-IO13-Pad13)*%
X151600000Y-90640000D03*
%TO.P,U3,14,GND*%
%TO.N,GND*%
X154140000Y-90640000D03*
%TO.P,U3,15,VIN*%
%TO.N,+5V*%
X156680000Y-90640000D03*
%TO.P,U3,16,3V3*%
%TO.N,+3V3*%
X156680000Y-65240000D03*
%TO.P,U3,17,GND*%
%TO.N,GND*%
X154140000Y-65240000D03*
%TO.P,U3,18,IO15*%
%TO.N,unconnected-(U3-IO15-Pad18)*%
X151600000Y-65240000D03*
%TO.P,U3,19,IO2*%
%TO.N,unconnected-(U3-IO2-Pad19)*%
X149060000Y-65240000D03*
%TO.P,U3,20,IO4*%
%TO.N,/Y_DATA*%
X146520000Y-65240000D03*
%TO.P,U3,21,IO16*%
%TO.N,/Z_CLOCK_OUT*%
X143980000Y-65240000D03*
%TO.P,U3,22,IO17*%
%TO.N,/Z_DATA*%
X141440000Y-65240000D03*
%TO.P,U3,23,IO5*%
%TO.N,unconnected-(U3-IO5-Pad23)*%
X138900000Y-65240000D03*
%TO.P,U3,24,IO18*%
%TO.N,unconnected-(U3-IO18-Pad24)*%
X136360000Y-65240000D03*
%TO.P,U3,25,IO19*%
%TO.N,unconnected-(U3-IO19-Pad25)*%
X133820000Y-65240000D03*
%TO.P,U3,26,IO21*%
%TO.N,unconnected-(U3-IO21-Pad26)*%
X131280000Y-65240000D03*
%TO.P,U3,27,RXD0/IO3*%
%TO.N,unconnected-(U3-RXD0{slash}IO3-Pad27)*%
X128740000Y-65240000D03*
%TO.P,U3,28,TXD0/IO1*%
%TO.N,unconnected-(U3-TXD0{slash}IO1-Pad28)*%
X126200000Y-65240000D03*
%TO.P,U3,29,IO22*%
%TO.N,unconnected-(U3-IO22-Pad29)*%
X123660000Y-65240000D03*
%TO.P,U3,30,IO23*%
%TO.N,unconnected-(U3-IO23-Pad30)*%
X121120000Y-65240000D03*
%TD*%
D10*
%TO.P,R11,1*%
%TO.N,/X_CLK*%
X119930000Y-136300000D03*
D12*
%TO.P,R11,2*%
%TO.N,/SCALE_VIN*%
X119930000Y-128680000D03*
%TD*%
D10*
%TO.P,R18,1*%
%TO.N,/Z_D*%
X146430000Y-136300000D03*
D12*
%TO.P,R18,2*%
%TO.N,/SCALE_VIN*%
X146430000Y-128680000D03*
%TD*%
D18*
%TO.P,JP3,1,A*%
%TO.N,/Z_CLK*%
X155655000Y-140495000D03*
D19*
%TO.P,JP3,2,B*%
%TO.N,/Z_CLOCK_OUT*%
X158195000Y-140495000D03*
%TD*%
D10*
%TO.P,R4,1*%
%TO.N,/SEN_VN*%
X123490000Y-97490000D03*
D12*
%TO.P,R4,2*%
%TO.N,GND*%
X115870000Y-97490000D03*
%TD*%
D10*
%TO.P,J2,1,VBUS*%
%TO.N,/SCALE_VIN*%
X129830000Y-145190000D03*
%TO.P,J2,2,D-*%
%TO.N,/Y_D*%
X132370000Y-145190000D03*
%TO.P,J2,3,D+*%
%TO.N,/Y_CLK*%
X134910000Y-145190000D03*
%TO.P,J2,4,ID*%
%TO.N,unconnected-(J2-ID-Pad4)*%
X137450000Y-145190000D03*
%TO.P,J2,5,GND*%
%TO.N,GND*%
X139990000Y-145190000D03*
D13*
%TO.P,J2,6,Shield*%
X129330000Y-153290000D03*
X140530000Y-153290000D03*
%TD*%
D11*
%TO.P,C11,1*%
%TO.N,+3V3*%
X153330000Y-60940000D03*
D10*
%TO.P,C11,2*%
%TO.N,GND*%
X153330000Y-57440000D03*
%TD*%
D18*
%TO.P,JP2,1,A*%
%TO.N,/Y_CLK*%
X138930000Y-140490000D03*
D19*
%TO.P,JP2,2,B*%
%TO.N,/Y_CLOCK_OUT*%
X141470000Y-140490000D03*
%TD*%
D21*
%TO.P,TB1,1*%
%TO.N,+5V*%
X162180000Y-151090000D03*
%TO.P,TB1,2*%
%TO.N,GND*%
X165680000Y-151090000D03*
%TD*%
D10*
%TO.P,R20,1*%
%TO.N,/Z_D*%
X149930000Y-136300000D03*
D12*
%TO.P,R20,2*%
%TO.N,Net-(R20-Pad2)*%
X149930000Y-128680000D03*
%TD*%
D10*
%TO.P,R3,1*%
%TO.N,GND*%
X115870000Y-93990000D03*
D12*
%TO.P,R3,2*%
%TO.N,/SEN_VP*%
X123490000Y-93990000D03*
%TD*%
D10*
%TO.P,R15,1*%
%TO.N,/Y_CLK*%
X140430000Y-136300000D03*
D12*
%TO.P,R15,2*%
%TO.N,Net-(R15-Pad2)*%
X140430000Y-128680000D03*
%TD*%
D10*
%TO.P,R14,1*%
%TO.N,/Y_D*%
X129930000Y-136300000D03*
D12*
%TO.P,R14,2*%
%TO.N,/SCALE_VIN*%
X129930000Y-128680000D03*
%TD*%
D10*
%TO.P,J3,1,VBUS*%
%TO.N,/SCALE_VIN*%
X146330000Y-145190000D03*
%TO.P,J3,2,D-*%
%TO.N,/Z_D*%
X148870000Y-145190000D03*
%TO.P,J3,3,D+*%
%TO.N,/Z_CLK*%
X151410000Y-145190000D03*
%TO.P,J3,4,ID*%
%TO.N,unconnected-(J3-ID-Pad4)*%
X153950000Y-145190000D03*
%TO.P,J3,5,GND*%
%TO.N,GND*%
X156490000Y-145190000D03*
D13*
%TO.P,J3,6,Shield*%
X145830000Y-153290000D03*
X157030000Y-153290000D03*
%TD*%
D10*
%TO.P,R16,1*%
%TO.N,/Y_D*%
X133430000Y-136300000D03*
D12*
%TO.P,R16,2*%
%TO.N,Net-(R16-Pad2)*%
X133430000Y-128680000D03*
%TD*%
D10*
%TO.P,C8,1*%
%TO.N,+5V*%
X161930000Y-138390000D03*
%TO.P,C8,2*%
%TO.N,GND*%
X166930000Y-138390000D03*
%TD*%
D22*
%TO.N,/Y_CLOCK_IN*%
X142530000Y-85790000D03*
%TO.N,+5V*%
X160230000Y-94690000D03*
%TO.N,+3V3*%
X158630000Y-110290000D03*
%TO.N,/Z_CLOCK_IN*%
X145230000Y-87490000D03*
%TD*%
D23*
%TO.N,Net-(R1-Pad2)*%
X133390000Y-116490000D02*
X125830000Y-116490000D01*
X123430000Y-118890000D02*
X125830000Y-116490000D01*
X123430000Y-128680000D02*
X123430000Y-118890000D01*
%TO.N,/X_CLOCK_IN*%
X135930000Y-115090000D02*
X135930000Y-116490000D01*
X137230000Y-113790000D02*
X135930000Y-115090000D01*
X136360000Y-90640000D02*
X136360000Y-98120000D01*
X137230000Y-98990000D02*
X137230000Y-113790000D01*
X136360000Y-98120000D02*
X137230000Y-98990000D01*
%TO.N,Net-(R2-Pad2)*%
X135330000Y-118490000D02*
X137630000Y-118490000D01*
X134630000Y-114390000D02*
X134630000Y-117790000D01*
X137630000Y-118490000D02*
X138470000Y-117650000D01*
X120180000Y-123240000D02*
X120180000Y-116190000D01*
X116430000Y-128680000D02*
X116430000Y-126990000D01*
X122680000Y-113690000D02*
X133930000Y-113690000D01*
X138470000Y-117650000D02*
X138470000Y-116490000D01*
X134630000Y-117790000D02*
X135330000Y-118490000D01*
X133930000Y-113690000D02*
X134630000Y-114390000D01*
X116430000Y-126990000D02*
X120180000Y-123240000D01*
X120180000Y-116190000D02*
X122680000Y-113690000D01*
%TO.N,/X_DATA*%
X141010000Y-116490000D02*
X141010000Y-113870000D01*
X141010000Y-113870000D02*
X139730000Y-112590000D01*
X141440000Y-97280000D02*
X139730000Y-98990000D01*
X139730000Y-112590000D02*
X139730000Y-98990000D01*
X141440000Y-90640000D02*
X141440000Y-97280000D01*
%TO.N,/SCALE_VIN*%
X114680000Y-138520000D02*
X114680000Y-133740000D01*
X146430000Y-131740000D02*
X148180000Y-133490000D01*
X160430000Y-132590000D02*
X160430000Y-146240000D01*
X131680000Y-138735000D02*
X131680000Y-133490000D01*
X146450000Y-145070000D02*
X146330000Y-145190000D01*
X129930000Y-131740000D02*
X129930000Y-128680000D01*
X146450000Y-140485000D02*
X148180000Y-138755000D01*
X112830000Y-141115000D02*
X112705000Y-140990000D01*
X129930000Y-140485000D02*
X131680000Y-138735000D01*
X114680000Y-133490000D02*
X112930000Y-131740000D01*
X129830000Y-145190000D02*
X129830000Y-140585000D01*
X113930000Y-147490000D02*
X112830000Y-146390000D01*
X146430000Y-147490000D02*
X129930000Y-147490000D01*
X114680000Y-133740000D02*
X114680000Y-133490000D01*
X148180000Y-138755000D02*
X148180000Y-133490000D01*
X146430000Y-128680000D02*
X146430000Y-129740000D01*
X129930000Y-147490000D02*
X113930000Y-147490000D01*
X146330000Y-145190000D02*
X146330000Y-140605000D01*
X112930000Y-131740000D02*
X112930000Y-128680000D01*
X146430000Y-129740000D02*
X146430000Y-131740000D01*
X112830000Y-140620000D02*
X112705000Y-140495000D01*
X131680000Y-133490000D02*
X129930000Y-131740000D01*
X160430000Y-146240000D02*
X159180000Y-147490000D01*
X129830000Y-147390000D02*
X129930000Y-147490000D01*
X112705000Y-140495000D02*
X114680000Y-138520000D01*
X129830000Y-145190000D02*
X129830000Y-147390000D01*
X112830000Y-146390000D02*
X112830000Y-145190000D01*
X146330000Y-145190000D02*
X146330000Y-147390000D01*
X112830000Y-145190000D02*
X112830000Y-140620000D01*
X164430000Y-131675000D02*
X161345000Y-131675000D01*
X146330000Y-140605000D02*
X146450000Y-140485000D01*
X161345000Y-131675000D02*
X160430000Y-132590000D01*
X146330000Y-147390000D02*
X146430000Y-147490000D01*
X129830000Y-140585000D02*
X129930000Y-140485000D01*
X159180000Y-147490000D02*
X146430000Y-147490000D01*
%TO.N,/Y_CLOCK_IN*%
X142530000Y-85790000D02*
X142530000Y-87490000D01*
X142830000Y-92790000D02*
X142830000Y-103790000D01*
X142230000Y-104390000D02*
X142230000Y-111590000D01*
X144930000Y-111890000D02*
X146090000Y-113050000D01*
X142230000Y-111590000D02*
X142530000Y-111890000D01*
X142830000Y-103790000D02*
X142230000Y-104390000D01*
X142730000Y-87690000D02*
X142730000Y-92690000D01*
X146090000Y-113050000D02*
X146090000Y-116490000D01*
X142730000Y-92690000D02*
X142830000Y-92790000D01*
X142530000Y-87490000D02*
X142730000Y-87690000D01*
X142530000Y-111890000D02*
X144930000Y-111890000D01*
%TO.N,GND*%
X166277349Y-146392651D02*
X165680000Y-146990000D01*
X165680000Y-146990000D02*
X165680000Y-151090000D01*
X166277349Y-144990000D02*
X166277349Y-146392651D01*
%TO.N,/Y_DATA*%
X148630000Y-108870000D02*
X148630000Y-94590000D01*
X146520000Y-75480000D02*
X150330000Y-79290000D01*
X150330000Y-92890000D02*
X150330000Y-79290000D01*
X146520000Y-65240000D02*
X146520000Y-75480000D01*
X148630000Y-94590000D02*
X150330000Y-92890000D01*
%TO.N,+5V*%
X162777349Y-145142651D02*
X162180000Y-145740000D01*
X162777349Y-140790000D02*
X161930000Y-139942651D01*
X166330000Y-125090000D02*
X167130000Y-125890000D01*
X162777349Y-144990000D02*
X162777349Y-140790000D01*
X161930000Y-138390000D02*
X161930000Y-134615000D01*
X156680000Y-94640000D02*
X156730000Y-94690000D01*
X162180000Y-145740000D02*
X162180000Y-151090000D01*
X156680000Y-90640000D02*
X156680000Y-94640000D01*
X167130000Y-125890000D02*
X167130000Y-133490000D01*
X163530000Y-125090000D02*
X166330000Y-125090000D01*
X166405000Y-134215000D02*
X167130000Y-133490000D01*
X161930000Y-134615000D02*
X162330000Y-134215000D01*
X164430000Y-134215000D02*
X166405000Y-134215000D01*
X162777349Y-144990000D02*
X162777349Y-145142651D01*
X160230000Y-94690000D02*
X160230000Y-121790000D01*
X161930000Y-139942651D02*
X161930000Y-138390000D01*
X160230000Y-121790000D02*
X163530000Y-125090000D01*
X164430000Y-134215000D02*
X162330000Y-134215000D01*
%TO.N,+3V3*%
X141930000Y-61690000D02*
X146580000Y-61690000D01*
X156680000Y-65240000D02*
X156680000Y-61890000D01*
X158630000Y-126790000D02*
X158630000Y-71290000D01*
X158630000Y-71290000D02*
X156680000Y-69340000D01*
X146580000Y-61690000D02*
X152580000Y-61690000D01*
X153330000Y-60940000D02*
X155730000Y-60940000D01*
X152580000Y-61690000D02*
X153330000Y-60940000D01*
X160975000Y-129135000D02*
X158630000Y-126790000D01*
X155730000Y-60940000D02*
X156680000Y-61890000D01*
X164430000Y-129135000D02*
X160975000Y-129135000D01*
X156680000Y-69340000D02*
X156680000Y-65240000D01*
%TO.N,Net-(R15-Pad2)*%
X140430000Y-130090000D02*
X139330000Y-131190000D01*
X140430000Y-128680000D02*
X140430000Y-130090000D01*
X134330000Y-119890000D02*
X142830000Y-119890000D01*
X132730000Y-131190000D02*
X131830000Y-130290000D01*
X139330000Y-131190000D02*
X132730000Y-131190000D01*
X131830000Y-122390000D02*
X134330000Y-119890000D01*
X143550000Y-116490000D02*
X143550000Y-119170000D01*
X143550000Y-119170000D02*
X142830000Y-119890000D01*
X131830000Y-130290000D02*
X131830000Y-122390000D01*
%TO.N,/Z_CLOCK_IN*%
X145230000Y-93590000D02*
X145930000Y-94290000D01*
X145230000Y-87490000D02*
X145230000Y-93590000D01*
X145930000Y-94290000D02*
X145930000Y-102490000D01*
X143550000Y-104870000D02*
X143550000Y-108870000D01*
X145930000Y-102490000D02*
X143550000Y-104870000D01*
%TO.N,Net-(R16-Pad2)*%
X133430000Y-123490000D02*
X133430000Y-128680000D01*
X146090000Y-108870000D02*
X146090000Y-111450000D01*
X135130000Y-121790000D02*
X133430000Y-123490000D01*
X147330000Y-112690000D02*
X147330000Y-120490000D01*
X146030000Y-121790000D02*
X135130000Y-121790000D01*
X146090000Y-111450000D02*
X147330000Y-112690000D01*
X147330000Y-120490000D02*
X146030000Y-121790000D01*
%TO.N,/Z_DATA*%
X140130000Y-96990000D02*
X140130000Y-78790000D01*
X141440000Y-65240000D02*
X141440000Y-77480000D01*
X141440000Y-77480000D02*
X140130000Y-78790000D01*
X138470000Y-108870000D02*
X138470000Y-98650000D01*
X138470000Y-98650000D02*
X140130000Y-96990000D01*
%TO.N,/X_D*%
X115370000Y-145190000D02*
X115370000Y-140550000D01*
X116430000Y-139490000D02*
X116430000Y-136300000D01*
X115370000Y-140550000D02*
X116430000Y-139490000D01*
%TO.N,/X_CLK*%
X121655000Y-138025000D02*
X119930000Y-136300000D01*
X121655000Y-140495000D02*
X121655000Y-138025000D01*
X123430000Y-136300000D02*
X119930000Y-136300000D01*
%TO.N,/Y_D*%
X132370000Y-142050000D02*
X132370000Y-145190000D01*
X133430000Y-136300000D02*
X133430000Y-140490000D01*
X133430000Y-140490000D02*
X132430000Y-141490000D01*
X132430000Y-141990000D02*
X132370000Y-142050000D01*
X132430000Y-141490000D02*
X132430000Y-141990000D01*
%TO.N,/Y_CLK*%
X138930000Y-140490000D02*
X138930000Y-138300000D01*
X138930000Y-138300000D02*
X136930000Y-136300000D01*
X136930000Y-136300000D02*
X140430000Y-136300000D01*
%TO.N,/Z_D*%
X148870000Y-145190000D02*
X148870000Y-141050000D01*
X148870000Y-141050000D02*
X149930000Y-139990000D01*
X149930000Y-139990000D02*
X149930000Y-136300000D01*
%TO.N,/Z_CLK*%
X155655000Y-140495000D02*
X155655000Y-138525000D01*
X153430000Y-136300000D02*
X156930000Y-136300000D01*
X155655000Y-138525000D02*
X153430000Y-136300000D01*
%TO.N,/Y_CLOCK_OUT*%
X148430000Y-123690000D02*
X145130000Y-123690000D01*
X150130000Y-121990000D02*
X148430000Y-123690000D01*
X147730000Y-86990000D02*
X147730000Y-93490000D01*
X150130000Y-113890000D02*
X150130000Y-121990000D01*
X147330000Y-111090000D02*
X150130000Y-113890000D01*
X147730000Y-93490000D02*
X147330000Y-93890000D01*
X147330000Y-93890000D02*
X147330000Y-111090000D01*
X143730000Y-125090000D02*
X143730000Y-138230000D01*
X143980000Y-86940000D02*
X144830000Y-86090000D01*
X143980000Y-90640000D02*
X143980000Y-86940000D01*
X145130000Y-123690000D02*
X143730000Y-125090000D01*
X146830000Y-86090000D02*
X147730000Y-86990000D01*
X144830000Y-86090000D02*
X146830000Y-86090000D01*
X143730000Y-138230000D02*
X141470000Y-140490000D01*
%TO.N,/Z_CLOCK_OUT*%
X143980000Y-64140000D02*
X143980000Y-65240000D01*
X158530000Y-133490000D02*
X156330000Y-133490000D01*
X151330000Y-78890000D02*
X147830000Y-75390000D01*
X156330000Y-133490000D02*
X155080000Y-132240000D01*
X151330000Y-84590000D02*
X151330000Y-78890000D01*
X151330000Y-123090000D02*
X151330000Y-98590000D01*
X158195000Y-140495000D02*
X159130000Y-139560000D01*
X147830000Y-75390000D02*
X147830000Y-63990000D01*
X159130000Y-139560000D02*
X159130000Y-134090000D01*
X144830000Y-63290000D02*
X143980000Y-64140000D01*
X159130000Y-134090000D02*
X158530000Y-133490000D01*
X153630000Y-96290000D02*
X153630000Y-93390000D01*
X153630000Y-93390000D02*
X152830000Y-92590000D01*
X151330000Y-98590000D02*
X153630000Y-96290000D01*
X147830000Y-63990000D02*
X147130000Y-63290000D01*
X155080000Y-132240000D02*
X155080000Y-126840000D01*
X152830000Y-92590000D02*
X152830000Y-86090000D01*
X155080000Y-126840000D02*
X151330000Y-123090000D01*
X147130000Y-63290000D02*
X144830000Y-63290000D01*
X152830000Y-86090000D02*
X151330000Y-84590000D01*
%TO.N,/X_CLOCK_OUT*%
X119430000Y-142290000D02*
X119430000Y-139090000D01*
X135430000Y-88490000D02*
X138650000Y-88490000D01*
X138650000Y-88490000D02*
X138900000Y-88740000D01*
X119430000Y-139090000D02*
X118230000Y-137890000D01*
X138900000Y-88740000D02*
X138900000Y-90640000D01*
X120130000Y-142990000D02*
X119430000Y-142290000D01*
X114605000Y-125815000D02*
X118680000Y-121740000D01*
X123430000Y-142990000D02*
X120130000Y-142990000D01*
X118230000Y-135090000D02*
X114605000Y-131465000D01*
X135180000Y-88740000D02*
X135430000Y-88490000D01*
X114605000Y-131465000D02*
X114605000Y-125815000D01*
X118680000Y-112990000D02*
X135180000Y-96490000D01*
X124195000Y-142225000D02*
X123430000Y-142990000D01*
X124195000Y-140495000D02*
X124195000Y-142225000D01*
X118230000Y-137890000D02*
X118230000Y-135090000D01*
X118680000Y-121740000D02*
X118680000Y-112990000D01*
X135180000Y-96490000D02*
X135180000Y-88740000D01*
%TO.N,/SEN_VP*%
X123660000Y-93820000D02*
X123490000Y-93990000D01*
X123660000Y-90640000D02*
X123660000Y-93820000D01*
%TO.N,/SEN_VN*%
X126200000Y-90640000D02*
X126200000Y-96220000D01*
X124930000Y-97490000D02*
X126200000Y-96220000D01*
X123490000Y-97490000D02*
X124930000Y-97490000D01*
%TD*%
M02*
