%TF.GenerationSoftware,KiCad,Pcbnew,8.0.0*%
%TF.CreationDate,2024-03-07T23:13:00+02:00*%
%TF.ProjectId,touchdro-board,746f7563-6864-4726-9f2d-626f6172642e,rev?*%
%TF.SameCoordinates,Original*%
%TF.FileFunction,Soldermask,Top*%
%TF.FilePolarity,Negative*%
%FSLAX46Y46*%
G04 Gerber Fmt 4.6, Leading zero omitted, Abs format (unit mm)*
G04 Created by KiCad (PCBNEW 8.0.0) date 2024-03-07 23:13:00*
%MOMM*%
%LPD*%
G01*
G04 APERTURE LIST*
G04 Aperture macros list*
%AMRoundRect*
0 Rectangle with rounded corners*
0 $1 Rounding radius*
0 $2 $3 $4 $5 $6 $7 $8 $9 X,Y pos of 4 corners*
0 Add a 4 corners polygon primitive as box body*
4,1,4,$2,$3,$4,$5,$6,$7,$8,$9,$2,$3,0*
0 Add four circle primitives for the rounded corners*
1,1,$1+$1,$2,$3*
1,1,$1+$1,$4,$5*
1,1,$1+$1,$6,$7*
1,1,$1+$1,$8,$9*
0 Add four rect primitives between the rounded corners*
20,1,$1+$1,$2,$3,$4,$5,0*
20,1,$1+$1,$4,$5,$6,$7,0*
20,1,$1+$1,$6,$7,$8,$9,0*
20,1,$1+$1,$8,$9,$2,$3,0*%
G04 Aperture macros list end*
%ADD10C,1.600000*%
%ADD11R,1.600000X1.600000*%
%ADD12O,1.600000X1.600000*%
%ADD13C,3.500000*%
%ADD14C,3.000000*%
%ADD15R,2.500000X2.000000*%
%ADD16R,2.000000X1.700000*%
%ADD17O,2.000000X1.700000*%
%ADD18R,1.300000X2.000000*%
%ADD19O,1.300000X2.000000*%
%ADD20R,1.700000X2.000000*%
%ADD21O,1.700000X2.000000*%
%ADD22RoundRect,0.229659X0.470341X-0.770341X0.470341X0.770341X-0.470341X0.770341X-0.470341X-0.770341X0*%
%ADD23O,2.200000X3.000000*%
G04 APERTURE END LIST*
D10*
%TO.C,C4*%
X146580000Y-61690000D03*
X146580000Y-56690000D03*
%TD*%
D11*
%TO.C,C6*%
X162777349Y-144990000D03*
D10*
X166277349Y-144990000D03*
%TD*%
%TO.C,R13*%
X136930000Y-136300000D03*
D12*
X136930000Y-128680000D03*
%TD*%
D10*
%TO.C,C5*%
X141930000Y-61690000D03*
X141930000Y-56690000D03*
%TD*%
%TO.C,R2*%
X116430000Y-136300000D03*
D12*
X116430000Y-128680000D03*
%TD*%
D13*
%TO.C,J6*%
X164430000Y-58990000D03*
%TD*%
D10*
%TO.C,R12*%
X112930000Y-136300000D03*
D12*
X112930000Y-128680000D03*
%TD*%
D10*
%TO.C,C1*%
X153430000Y-110290000D03*
X153430000Y-115290000D03*
%TD*%
D13*
%TO.C,J7*%
X164430000Y-118990000D03*
%TD*%
D10*
%TO.C,C2*%
X112705000Y-140495000D03*
X117705000Y-140495000D03*
%TD*%
D14*
%TO.C,J1*%
X113410000Y-149990000D03*
X122410000Y-149990000D03*
D10*
X112830000Y-145190000D03*
X115370000Y-145190000D03*
X117910000Y-145190000D03*
X120450000Y-145190000D03*
X122990000Y-145190000D03*
D15*
X112330000Y-153290000D03*
X123530000Y-153290000D03*
%TD*%
D10*
%TO.C,C9*%
X129930000Y-140485000D03*
X134930000Y-140485000D03*
%TD*%
D16*
%TO.C,J20*%
X164430000Y-134215000D03*
D17*
X164430000Y-131675000D03*
X164430000Y-129135000D03*
%TD*%
D18*
%TO.C,U1*%
X133390000Y-116490000D03*
D19*
X135930000Y-116490000D03*
X138470000Y-116490000D03*
X141010000Y-116490000D03*
X143550000Y-116490000D03*
X146090000Y-116490000D03*
X148630000Y-116490000D03*
X148630000Y-108870000D03*
X146090000Y-108870000D03*
X143550000Y-108870000D03*
X141010000Y-108870000D03*
X138470000Y-108870000D03*
X135930000Y-108870000D03*
X133390000Y-108870000D03*
%TD*%
D10*
%TO.C,C7*%
X156730000Y-94690000D03*
X151730000Y-94690000D03*
%TD*%
%TO.C,C10*%
X146450000Y-140485000D03*
X151450000Y-140485000D03*
%TD*%
%TO.C,R17*%
X153430000Y-136300000D03*
D12*
X153430000Y-128680000D03*
%TD*%
D10*
%TO.C,R19*%
X156930000Y-136300000D03*
D12*
X156930000Y-128680000D03*
%TD*%
D20*
%TO.C,JP1*%
X121655000Y-140495000D03*
D21*
X124195000Y-140495000D03*
%TD*%
D10*
%TO.C,R1*%
X123430000Y-136300000D03*
D12*
X123430000Y-128680000D03*
%TD*%
D22*
%TO.C,U3*%
X121120000Y-90640000D03*
X123660000Y-90640000D03*
X126200000Y-90640000D03*
X128740000Y-90640000D03*
X131280000Y-90640000D03*
X133820000Y-90640000D03*
X136360000Y-90640000D03*
X138900000Y-90640000D03*
X141440000Y-90640000D03*
X143980000Y-90640000D03*
X146520000Y-90640000D03*
X149060000Y-90640000D03*
X151600000Y-90640000D03*
X154140000Y-90640000D03*
X156680000Y-90640000D03*
X156680000Y-65240000D03*
X154140000Y-65240000D03*
X151600000Y-65240000D03*
X149060000Y-65240000D03*
X146520000Y-65240000D03*
X143980000Y-65240000D03*
X141440000Y-65240000D03*
X138900000Y-65240000D03*
X136360000Y-65240000D03*
X133820000Y-65240000D03*
X131280000Y-65240000D03*
X128740000Y-65240000D03*
X126200000Y-65240000D03*
X123660000Y-65240000D03*
X121120000Y-65240000D03*
%TD*%
D10*
%TO.C,R11*%
X119930000Y-136300000D03*
D12*
X119930000Y-128680000D03*
%TD*%
D10*
%TO.C,R18*%
X146430000Y-136300000D03*
D12*
X146430000Y-128680000D03*
%TD*%
D20*
%TO.C,JP3*%
X155655000Y-140495000D03*
D21*
X158195000Y-140495000D03*
%TD*%
D10*
%TO.C,R4*%
X123490000Y-97490000D03*
D12*
X115870000Y-97490000D03*
%TD*%
D14*
%TO.C,J2*%
X130410000Y-149990000D03*
X139410000Y-149990000D03*
D10*
X129830000Y-145190000D03*
X132370000Y-145190000D03*
X134910000Y-145190000D03*
X137450000Y-145190000D03*
X139990000Y-145190000D03*
D15*
X129330000Y-153290000D03*
X140530000Y-153290000D03*
%TD*%
D11*
%TO.C,C11*%
X153330000Y-60940000D03*
D10*
X153330000Y-57440000D03*
%TD*%
D20*
%TO.C,JP2*%
X138930000Y-140490000D03*
D21*
X141470000Y-140490000D03*
%TD*%
D23*
%TO.C,TB1*%
X162180000Y-151090000D03*
X165680000Y-151090000D03*
%TD*%
D10*
%TO.C,R20*%
X149930000Y-136300000D03*
D12*
X149930000Y-128680000D03*
%TD*%
D10*
%TO.C,R3*%
X115870000Y-93990000D03*
D12*
X123490000Y-93990000D03*
%TD*%
D10*
%TO.C,R15*%
X140430000Y-136300000D03*
D12*
X140430000Y-128680000D03*
%TD*%
D10*
%TO.C,R14*%
X129930000Y-136300000D03*
D12*
X129930000Y-128680000D03*
%TD*%
D13*
%TO.C,J8*%
X112430000Y-118990000D03*
%TD*%
D14*
%TO.C,J3*%
X146910000Y-149990000D03*
X155910000Y-149990000D03*
D10*
X146330000Y-145190000D03*
X148870000Y-145190000D03*
X151410000Y-145190000D03*
X153950000Y-145190000D03*
X156490000Y-145190000D03*
D15*
X145830000Y-153290000D03*
X157030000Y-153290000D03*
%TD*%
D10*
%TO.C,R16*%
X133430000Y-136300000D03*
D12*
X133430000Y-128680000D03*
%TD*%
D10*
%TO.C,C8*%
X161930000Y-138390000D03*
X166930000Y-138390000D03*
%TD*%
D13*
%TO.C,J5*%
X112430000Y-58990000D03*
%TD*%
M02*
