%TF.GenerationSoftware,KiCad,Pcbnew,8.0.0*%
%TF.CreationDate,2024-03-07T23:13:00+02:00*%
%TF.ProjectId,touchdro-board,746f7563-6864-4726-9f2d-626f6172642e,rev?*%
%TF.SameCoordinates,Original*%
%TF.FileFunction,Legend,Top*%
%TF.FilePolarity,Positive*%
%FSLAX46Y46*%
G04 Gerber Fmt 4.6, Leading zero omitted, Abs format (unit mm)*
G04 Created by KiCad (PCBNEW 8.0.0) date 2024-03-07 23:13:00*
%MOMM*%
%LPD*%
G01*
G04 APERTURE LIST*
%ADD10C,0.400000*%
%ADD11C,0.150000*%
%ADD12C,0.087500*%
%ADD13C,0.125000*%
%ADD14C,0.120000*%
%ADD15C,0.800000*%
%ADD16C,1.000000*%
G04 APERTURE END LIST*
D10*
X159419347Y-147962533D02*
X160943157Y-147962533D01*
X160181252Y-148724438D02*
X160181252Y-147200628D01*
D11*
X146939580Y-59356666D02*
X146987200Y-59404285D01*
X146987200Y-59404285D02*
X147034819Y-59547142D01*
X147034819Y-59547142D02*
X147034819Y-59642380D01*
X147034819Y-59642380D02*
X146987200Y-59785237D01*
X146987200Y-59785237D02*
X146891961Y-59880475D01*
X146891961Y-59880475D02*
X146796723Y-59928094D01*
X146796723Y-59928094D02*
X146606247Y-59975713D01*
X146606247Y-59975713D02*
X146463390Y-59975713D01*
X146463390Y-59975713D02*
X146272914Y-59928094D01*
X146272914Y-59928094D02*
X146177676Y-59880475D01*
X146177676Y-59880475D02*
X146082438Y-59785237D01*
X146082438Y-59785237D02*
X146034819Y-59642380D01*
X146034819Y-59642380D02*
X146034819Y-59547142D01*
X146034819Y-59547142D02*
X146082438Y-59404285D01*
X146082438Y-59404285D02*
X146130057Y-59356666D01*
X146368152Y-58499523D02*
X147034819Y-58499523D01*
X145987200Y-58737618D02*
X146701485Y-58975713D01*
X146701485Y-58975713D02*
X146701485Y-58356666D01*
X162763333Y-143349580D02*
X162715714Y-143397200D01*
X162715714Y-143397200D02*
X162572857Y-143444819D01*
X162572857Y-143444819D02*
X162477619Y-143444819D01*
X162477619Y-143444819D02*
X162334762Y-143397200D01*
X162334762Y-143397200D02*
X162239524Y-143301961D01*
X162239524Y-143301961D02*
X162191905Y-143206723D01*
X162191905Y-143206723D02*
X162144286Y-143016247D01*
X162144286Y-143016247D02*
X162144286Y-142873390D01*
X162144286Y-142873390D02*
X162191905Y-142682914D01*
X162191905Y-142682914D02*
X162239524Y-142587676D01*
X162239524Y-142587676D02*
X162334762Y-142492438D01*
X162334762Y-142492438D02*
X162477619Y-142444819D01*
X162477619Y-142444819D02*
X162572857Y-142444819D01*
X162572857Y-142444819D02*
X162715714Y-142492438D01*
X162715714Y-142492438D02*
X162763333Y-142540057D01*
X163620476Y-142444819D02*
X163430000Y-142444819D01*
X163430000Y-142444819D02*
X163334762Y-142492438D01*
X163334762Y-142492438D02*
X163287143Y-142540057D01*
X163287143Y-142540057D02*
X163191905Y-142682914D01*
X163191905Y-142682914D02*
X163144286Y-142873390D01*
X163144286Y-142873390D02*
X163144286Y-143254342D01*
X163144286Y-143254342D02*
X163191905Y-143349580D01*
X163191905Y-143349580D02*
X163239524Y-143397200D01*
X163239524Y-143397200D02*
X163334762Y-143444819D01*
X163334762Y-143444819D02*
X163525238Y-143444819D01*
X163525238Y-143444819D02*
X163620476Y-143397200D01*
X163620476Y-143397200D02*
X163668095Y-143349580D01*
X163668095Y-143349580D02*
X163715714Y-143254342D01*
X163715714Y-143254342D02*
X163715714Y-143016247D01*
X163715714Y-143016247D02*
X163668095Y-142921009D01*
X163668095Y-142921009D02*
X163620476Y-142873390D01*
X163620476Y-142873390D02*
X163525238Y-142825771D01*
X163525238Y-142825771D02*
X163334762Y-142825771D01*
X163334762Y-142825771D02*
X163239524Y-142873390D01*
X163239524Y-142873390D02*
X163191905Y-142921009D01*
X163191905Y-142921009D02*
X163144286Y-143016247D01*
X137384819Y-133132857D02*
X136908628Y-133466190D01*
X137384819Y-133704285D02*
X136384819Y-133704285D01*
X136384819Y-133704285D02*
X136384819Y-133323333D01*
X136384819Y-133323333D02*
X136432438Y-133228095D01*
X136432438Y-133228095D02*
X136480057Y-133180476D01*
X136480057Y-133180476D02*
X136575295Y-133132857D01*
X136575295Y-133132857D02*
X136718152Y-133132857D01*
X136718152Y-133132857D02*
X136813390Y-133180476D01*
X136813390Y-133180476D02*
X136861009Y-133228095D01*
X136861009Y-133228095D02*
X136908628Y-133323333D01*
X136908628Y-133323333D02*
X136908628Y-133704285D01*
X137384819Y-132180476D02*
X137384819Y-132751904D01*
X137384819Y-132466190D02*
X136384819Y-132466190D01*
X136384819Y-132466190D02*
X136527676Y-132561428D01*
X136527676Y-132561428D02*
X136622914Y-132656666D01*
X136622914Y-132656666D02*
X136670533Y-132751904D01*
X136384819Y-131847142D02*
X136384819Y-131228095D01*
X136384819Y-131228095D02*
X136765771Y-131561428D01*
X136765771Y-131561428D02*
X136765771Y-131418571D01*
X136765771Y-131418571D02*
X136813390Y-131323333D01*
X136813390Y-131323333D02*
X136861009Y-131275714D01*
X136861009Y-131275714D02*
X136956247Y-131228095D01*
X136956247Y-131228095D02*
X137194342Y-131228095D01*
X137194342Y-131228095D02*
X137289580Y-131275714D01*
X137289580Y-131275714D02*
X137337200Y-131323333D01*
X137337200Y-131323333D02*
X137384819Y-131418571D01*
X137384819Y-131418571D02*
X137384819Y-131704285D01*
X137384819Y-131704285D02*
X137337200Y-131799523D01*
X137337200Y-131799523D02*
X137289580Y-131847142D01*
X142289580Y-59356666D02*
X142337200Y-59404285D01*
X142337200Y-59404285D02*
X142384819Y-59547142D01*
X142384819Y-59547142D02*
X142384819Y-59642380D01*
X142384819Y-59642380D02*
X142337200Y-59785237D01*
X142337200Y-59785237D02*
X142241961Y-59880475D01*
X142241961Y-59880475D02*
X142146723Y-59928094D01*
X142146723Y-59928094D02*
X141956247Y-59975713D01*
X141956247Y-59975713D02*
X141813390Y-59975713D01*
X141813390Y-59975713D02*
X141622914Y-59928094D01*
X141622914Y-59928094D02*
X141527676Y-59880475D01*
X141527676Y-59880475D02*
X141432438Y-59785237D01*
X141432438Y-59785237D02*
X141384819Y-59642380D01*
X141384819Y-59642380D02*
X141384819Y-59547142D01*
X141384819Y-59547142D02*
X141432438Y-59404285D01*
X141432438Y-59404285D02*
X141480057Y-59356666D01*
X141384819Y-58451904D02*
X141384819Y-58928094D01*
X141384819Y-58928094D02*
X141861009Y-58975713D01*
X141861009Y-58975713D02*
X141813390Y-58928094D01*
X141813390Y-58928094D02*
X141765771Y-58832856D01*
X141765771Y-58832856D02*
X141765771Y-58594761D01*
X141765771Y-58594761D02*
X141813390Y-58499523D01*
X141813390Y-58499523D02*
X141861009Y-58451904D01*
X141861009Y-58451904D02*
X141956247Y-58404285D01*
X141956247Y-58404285D02*
X142194342Y-58404285D01*
X142194342Y-58404285D02*
X142289580Y-58451904D01*
X142289580Y-58451904D02*
X142337200Y-58499523D01*
X142337200Y-58499523D02*
X142384819Y-58594761D01*
X142384819Y-58594761D02*
X142384819Y-58832856D01*
X142384819Y-58832856D02*
X142337200Y-58928094D01*
X142337200Y-58928094D02*
X142289580Y-58975713D01*
X116884819Y-132656666D02*
X116408628Y-132989999D01*
X116884819Y-133228094D02*
X115884819Y-133228094D01*
X115884819Y-133228094D02*
X115884819Y-132847142D01*
X115884819Y-132847142D02*
X115932438Y-132751904D01*
X115932438Y-132751904D02*
X115980057Y-132704285D01*
X115980057Y-132704285D02*
X116075295Y-132656666D01*
X116075295Y-132656666D02*
X116218152Y-132656666D01*
X116218152Y-132656666D02*
X116313390Y-132704285D01*
X116313390Y-132704285D02*
X116361009Y-132751904D01*
X116361009Y-132751904D02*
X116408628Y-132847142D01*
X116408628Y-132847142D02*
X116408628Y-133228094D01*
X115980057Y-132275713D02*
X115932438Y-132228094D01*
X115932438Y-132228094D02*
X115884819Y-132132856D01*
X115884819Y-132132856D02*
X115884819Y-131894761D01*
X115884819Y-131894761D02*
X115932438Y-131799523D01*
X115932438Y-131799523D02*
X115980057Y-131751904D01*
X115980057Y-131751904D02*
X116075295Y-131704285D01*
X116075295Y-131704285D02*
X116170533Y-131704285D01*
X116170533Y-131704285D02*
X116313390Y-131751904D01*
X116313390Y-131751904D02*
X116884819Y-132323332D01*
X116884819Y-132323332D02*
X116884819Y-131704285D01*
X113384819Y-133132857D02*
X112908628Y-133466190D01*
X113384819Y-133704285D02*
X112384819Y-133704285D01*
X112384819Y-133704285D02*
X112384819Y-133323333D01*
X112384819Y-133323333D02*
X112432438Y-133228095D01*
X112432438Y-133228095D02*
X112480057Y-133180476D01*
X112480057Y-133180476D02*
X112575295Y-133132857D01*
X112575295Y-133132857D02*
X112718152Y-133132857D01*
X112718152Y-133132857D02*
X112813390Y-133180476D01*
X112813390Y-133180476D02*
X112861009Y-133228095D01*
X112861009Y-133228095D02*
X112908628Y-133323333D01*
X112908628Y-133323333D02*
X112908628Y-133704285D01*
X113384819Y-132180476D02*
X113384819Y-132751904D01*
X113384819Y-132466190D02*
X112384819Y-132466190D01*
X112384819Y-132466190D02*
X112527676Y-132561428D01*
X112527676Y-132561428D02*
X112622914Y-132656666D01*
X112622914Y-132656666D02*
X112670533Y-132751904D01*
X112480057Y-131799523D02*
X112432438Y-131751904D01*
X112432438Y-131751904D02*
X112384819Y-131656666D01*
X112384819Y-131656666D02*
X112384819Y-131418571D01*
X112384819Y-131418571D02*
X112432438Y-131323333D01*
X112432438Y-131323333D02*
X112480057Y-131275714D01*
X112480057Y-131275714D02*
X112575295Y-131228095D01*
X112575295Y-131228095D02*
X112670533Y-131228095D01*
X112670533Y-131228095D02*
X112813390Y-131275714D01*
X112813390Y-131275714D02*
X113384819Y-131847142D01*
X113384819Y-131847142D02*
X113384819Y-131228095D01*
X153789580Y-112956666D02*
X153837200Y-113004285D01*
X153837200Y-113004285D02*
X153884819Y-113147142D01*
X153884819Y-113147142D02*
X153884819Y-113242380D01*
X153884819Y-113242380D02*
X153837200Y-113385237D01*
X153837200Y-113385237D02*
X153741961Y-113480475D01*
X153741961Y-113480475D02*
X153646723Y-113528094D01*
X153646723Y-113528094D02*
X153456247Y-113575713D01*
X153456247Y-113575713D02*
X153313390Y-113575713D01*
X153313390Y-113575713D02*
X153122914Y-113528094D01*
X153122914Y-113528094D02*
X153027676Y-113480475D01*
X153027676Y-113480475D02*
X152932438Y-113385237D01*
X152932438Y-113385237D02*
X152884819Y-113242380D01*
X152884819Y-113242380D02*
X152884819Y-113147142D01*
X152884819Y-113147142D02*
X152932438Y-113004285D01*
X152932438Y-113004285D02*
X152980057Y-112956666D01*
X153884819Y-112004285D02*
X153884819Y-112575713D01*
X153884819Y-112289999D02*
X152884819Y-112289999D01*
X152884819Y-112289999D02*
X153027676Y-112385237D01*
X153027676Y-112385237D02*
X153122914Y-112480475D01*
X153122914Y-112480475D02*
X153170533Y-112575713D01*
X115038333Y-140854580D02*
X114990714Y-140902200D01*
X114990714Y-140902200D02*
X114847857Y-140949819D01*
X114847857Y-140949819D02*
X114752619Y-140949819D01*
X114752619Y-140949819D02*
X114609762Y-140902200D01*
X114609762Y-140902200D02*
X114514524Y-140806961D01*
X114514524Y-140806961D02*
X114466905Y-140711723D01*
X114466905Y-140711723D02*
X114419286Y-140521247D01*
X114419286Y-140521247D02*
X114419286Y-140378390D01*
X114419286Y-140378390D02*
X114466905Y-140187914D01*
X114466905Y-140187914D02*
X114514524Y-140092676D01*
X114514524Y-140092676D02*
X114609762Y-139997438D01*
X114609762Y-139997438D02*
X114752619Y-139949819D01*
X114752619Y-139949819D02*
X114847857Y-139949819D01*
X114847857Y-139949819D02*
X114990714Y-139997438D01*
X114990714Y-139997438D02*
X115038333Y-140045057D01*
X115419286Y-140045057D02*
X115466905Y-139997438D01*
X115466905Y-139997438D02*
X115562143Y-139949819D01*
X115562143Y-139949819D02*
X115800238Y-139949819D01*
X115800238Y-139949819D02*
X115895476Y-139997438D01*
X115895476Y-139997438D02*
X115943095Y-140045057D01*
X115943095Y-140045057D02*
X115990714Y-140140295D01*
X115990714Y-140140295D02*
X115990714Y-140235533D01*
X115990714Y-140235533D02*
X115943095Y-140378390D01*
X115943095Y-140378390D02*
X115371667Y-140949819D01*
X115371667Y-140949819D02*
X115990714Y-140949819D01*
X117576666Y-148144819D02*
X117576666Y-148859104D01*
X117576666Y-148859104D02*
X117529047Y-149001961D01*
X117529047Y-149001961D02*
X117433809Y-149097200D01*
X117433809Y-149097200D02*
X117290952Y-149144819D01*
X117290952Y-149144819D02*
X117195714Y-149144819D01*
X118576666Y-149144819D02*
X118005238Y-149144819D01*
X118290952Y-149144819D02*
X118290952Y-148144819D01*
X118290952Y-148144819D02*
X118195714Y-148287676D01*
X118195714Y-148287676D02*
X118100476Y-148382914D01*
X118100476Y-148382914D02*
X118005238Y-148430533D01*
D12*
X120749999Y-146821978D02*
X120749999Y-147421978D01*
X120464285Y-146821978D02*
X120464285Y-147421978D01*
X120464285Y-147421978D02*
X120321428Y-147421978D01*
X120321428Y-147421978D02*
X120235714Y-147393407D01*
X120235714Y-147393407D02*
X120178571Y-147336264D01*
X120178571Y-147336264D02*
X120150000Y-147279121D01*
X120150000Y-147279121D02*
X120121428Y-147164835D01*
X120121428Y-147164835D02*
X120121428Y-147079121D01*
X120121428Y-147079121D02*
X120150000Y-146964835D01*
X120150000Y-146964835D02*
X120178571Y-146907692D01*
X120178571Y-146907692D02*
X120235714Y-146850550D01*
X120235714Y-146850550D02*
X120321428Y-146821978D01*
X120321428Y-146821978D02*
X120464285Y-146821978D01*
X123447142Y-147393407D02*
X123504285Y-147421978D01*
X123504285Y-147421978D02*
X123589999Y-147421978D01*
X123589999Y-147421978D02*
X123675713Y-147393407D01*
X123675713Y-147393407D02*
X123732856Y-147336264D01*
X123732856Y-147336264D02*
X123761427Y-147279121D01*
X123761427Y-147279121D02*
X123789999Y-147164835D01*
X123789999Y-147164835D02*
X123789999Y-147079121D01*
X123789999Y-147079121D02*
X123761427Y-146964835D01*
X123761427Y-146964835D02*
X123732856Y-146907692D01*
X123732856Y-146907692D02*
X123675713Y-146850550D01*
X123675713Y-146850550D02*
X123589999Y-146821978D01*
X123589999Y-146821978D02*
X123532856Y-146821978D01*
X123532856Y-146821978D02*
X123447142Y-146850550D01*
X123447142Y-146850550D02*
X123418570Y-146879121D01*
X123418570Y-146879121D02*
X123418570Y-147079121D01*
X123418570Y-147079121D02*
X123532856Y-147079121D01*
X123161427Y-146821978D02*
X123161427Y-147421978D01*
X123161427Y-147421978D02*
X122818570Y-146821978D01*
X122818570Y-146821978D02*
X122818570Y-147421978D01*
X122532856Y-146821978D02*
X122532856Y-147421978D01*
X122532856Y-147421978D02*
X122389999Y-147421978D01*
X122389999Y-147421978D02*
X122304285Y-147393407D01*
X122304285Y-147393407D02*
X122247142Y-147336264D01*
X122247142Y-147336264D02*
X122218571Y-147279121D01*
X122218571Y-147279121D02*
X122189999Y-147164835D01*
X122189999Y-147164835D02*
X122189999Y-147079121D01*
X122189999Y-147079121D02*
X122218571Y-146964835D01*
X122218571Y-146964835D02*
X122247142Y-146907692D01*
X122247142Y-146907692D02*
X122304285Y-146850550D01*
X122304285Y-146850550D02*
X122389999Y-146821978D01*
X122389999Y-146821978D02*
X122532856Y-146821978D01*
X113844285Y-147421978D02*
X113644285Y-146821978D01*
X113644285Y-146821978D02*
X113444285Y-147421978D01*
X113044284Y-147136264D02*
X112958570Y-147107692D01*
X112958570Y-147107692D02*
X112929999Y-147079121D01*
X112929999Y-147079121D02*
X112901427Y-147021978D01*
X112901427Y-147021978D02*
X112901427Y-146936264D01*
X112901427Y-146936264D02*
X112929999Y-146879121D01*
X112929999Y-146879121D02*
X112958570Y-146850550D01*
X112958570Y-146850550D02*
X113015713Y-146821978D01*
X113015713Y-146821978D02*
X113244284Y-146821978D01*
X113244284Y-146821978D02*
X113244284Y-147421978D01*
X113244284Y-147421978D02*
X113044284Y-147421978D01*
X113044284Y-147421978D02*
X112987142Y-147393407D01*
X112987142Y-147393407D02*
X112958570Y-147364835D01*
X112958570Y-147364835D02*
X112929999Y-147307692D01*
X112929999Y-147307692D02*
X112929999Y-147250550D01*
X112929999Y-147250550D02*
X112958570Y-147193407D01*
X112958570Y-147193407D02*
X112987142Y-147164835D01*
X112987142Y-147164835D02*
X113044284Y-147136264D01*
X113044284Y-147136264D02*
X113244284Y-147136264D01*
X112387142Y-147221978D02*
X112387142Y-146821978D01*
X112644284Y-147221978D02*
X112644284Y-146907692D01*
X112644284Y-146907692D02*
X112615713Y-146850550D01*
X112615713Y-146850550D02*
X112558570Y-146821978D01*
X112558570Y-146821978D02*
X112472856Y-146821978D01*
X112472856Y-146821978D02*
X112415713Y-146850550D01*
X112415713Y-146850550D02*
X112387142Y-146879121D01*
X112129999Y-146850550D02*
X112072856Y-146821978D01*
X112072856Y-146821978D02*
X111958570Y-146821978D01*
X111958570Y-146821978D02*
X111901427Y-146850550D01*
X111901427Y-146850550D02*
X111872856Y-146907692D01*
X111872856Y-146907692D02*
X111872856Y-146936264D01*
X111872856Y-146936264D02*
X111901427Y-146993407D01*
X111901427Y-146993407D02*
X111958570Y-147021978D01*
X111958570Y-147021978D02*
X112044285Y-147021978D01*
X112044285Y-147021978D02*
X112101427Y-147050550D01*
X112101427Y-147050550D02*
X112129999Y-147107692D01*
X112129999Y-147107692D02*
X112129999Y-147136264D01*
X112129999Y-147136264D02*
X112101427Y-147193407D01*
X112101427Y-147193407D02*
X112044285Y-147221978D01*
X112044285Y-147221978D02*
X111958570Y-147221978D01*
X111958570Y-147221978D02*
X111901427Y-147193407D01*
X118438570Y-146821978D02*
X118438570Y-147421978D01*
X118438570Y-147421978D02*
X118295713Y-147421978D01*
X118295713Y-147421978D02*
X118209999Y-147393407D01*
X118209999Y-147393407D02*
X118152856Y-147336264D01*
X118152856Y-147336264D02*
X118124285Y-147279121D01*
X118124285Y-147279121D02*
X118095713Y-147164835D01*
X118095713Y-147164835D02*
X118095713Y-147079121D01*
X118095713Y-147079121D02*
X118124285Y-146964835D01*
X118124285Y-146964835D02*
X118152856Y-146907692D01*
X118152856Y-146907692D02*
X118209999Y-146850550D01*
X118209999Y-146850550D02*
X118295713Y-146821978D01*
X118295713Y-146821978D02*
X118438570Y-146821978D01*
X117838570Y-147050550D02*
X117381428Y-147050550D01*
X117609999Y-146821978D02*
X117609999Y-147279121D01*
X115898570Y-146821978D02*
X115898570Y-147421978D01*
X115898570Y-147421978D02*
X115755713Y-147421978D01*
X115755713Y-147421978D02*
X115669999Y-147393407D01*
X115669999Y-147393407D02*
X115612856Y-147336264D01*
X115612856Y-147336264D02*
X115584285Y-147279121D01*
X115584285Y-147279121D02*
X115555713Y-147164835D01*
X115555713Y-147164835D02*
X115555713Y-147079121D01*
X115555713Y-147079121D02*
X115584285Y-146964835D01*
X115584285Y-146964835D02*
X115612856Y-146907692D01*
X115612856Y-146907692D02*
X115669999Y-146850550D01*
X115669999Y-146850550D02*
X115755713Y-146821978D01*
X115755713Y-146821978D02*
X115898570Y-146821978D01*
X115298570Y-147050550D02*
X114841428Y-147050550D01*
D11*
X132263333Y-140844580D02*
X132215714Y-140892200D01*
X132215714Y-140892200D02*
X132072857Y-140939819D01*
X132072857Y-140939819D02*
X131977619Y-140939819D01*
X131977619Y-140939819D02*
X131834762Y-140892200D01*
X131834762Y-140892200D02*
X131739524Y-140796961D01*
X131739524Y-140796961D02*
X131691905Y-140701723D01*
X131691905Y-140701723D02*
X131644286Y-140511247D01*
X131644286Y-140511247D02*
X131644286Y-140368390D01*
X131644286Y-140368390D02*
X131691905Y-140177914D01*
X131691905Y-140177914D02*
X131739524Y-140082676D01*
X131739524Y-140082676D02*
X131834762Y-139987438D01*
X131834762Y-139987438D02*
X131977619Y-139939819D01*
X131977619Y-139939819D02*
X132072857Y-139939819D01*
X132072857Y-139939819D02*
X132215714Y-139987438D01*
X132215714Y-139987438D02*
X132263333Y-140035057D01*
X132739524Y-140939819D02*
X132930000Y-140939819D01*
X132930000Y-140939819D02*
X133025238Y-140892200D01*
X133025238Y-140892200D02*
X133072857Y-140844580D01*
X133072857Y-140844580D02*
X133168095Y-140701723D01*
X133168095Y-140701723D02*
X133215714Y-140511247D01*
X133215714Y-140511247D02*
X133215714Y-140130295D01*
X133215714Y-140130295D02*
X133168095Y-140035057D01*
X133168095Y-140035057D02*
X133120476Y-139987438D01*
X133120476Y-139987438D02*
X133025238Y-139939819D01*
X133025238Y-139939819D02*
X132834762Y-139939819D01*
X132834762Y-139939819D02*
X132739524Y-139987438D01*
X132739524Y-139987438D02*
X132691905Y-140035057D01*
X132691905Y-140035057D02*
X132644286Y-140130295D01*
X132644286Y-140130295D02*
X132644286Y-140368390D01*
X132644286Y-140368390D02*
X132691905Y-140463628D01*
X132691905Y-140463628D02*
X132739524Y-140511247D01*
X132739524Y-140511247D02*
X132834762Y-140558866D01*
X132834762Y-140558866D02*
X133025238Y-140558866D01*
X133025238Y-140558866D02*
X133120476Y-140511247D01*
X133120476Y-140511247D02*
X133168095Y-140463628D01*
X133168095Y-140463628D02*
X133215714Y-140368390D01*
D13*
X164025238Y-126429809D02*
X164025238Y-126786952D01*
X164025238Y-126786952D02*
X164001429Y-126858380D01*
X164001429Y-126858380D02*
X163953810Y-126906000D01*
X163953810Y-126906000D02*
X163882381Y-126929809D01*
X163882381Y-126929809D02*
X163834762Y-126929809D01*
X164239524Y-126477428D02*
X164263333Y-126453619D01*
X164263333Y-126453619D02*
X164310952Y-126429809D01*
X164310952Y-126429809D02*
X164430000Y-126429809D01*
X164430000Y-126429809D02*
X164477619Y-126453619D01*
X164477619Y-126453619D02*
X164501428Y-126477428D01*
X164501428Y-126477428D02*
X164525238Y-126525047D01*
X164525238Y-126525047D02*
X164525238Y-126572666D01*
X164525238Y-126572666D02*
X164501428Y-126644095D01*
X164501428Y-126644095D02*
X164215714Y-126929809D01*
X164215714Y-126929809D02*
X164525238Y-126929809D01*
X164834761Y-126429809D02*
X164882380Y-126429809D01*
X164882380Y-126429809D02*
X164929999Y-126453619D01*
X164929999Y-126453619D02*
X164953809Y-126477428D01*
X164953809Y-126477428D02*
X164977618Y-126525047D01*
X164977618Y-126525047D02*
X165001428Y-126620285D01*
X165001428Y-126620285D02*
X165001428Y-126739333D01*
X165001428Y-126739333D02*
X164977618Y-126834571D01*
X164977618Y-126834571D02*
X164953809Y-126882190D01*
X164953809Y-126882190D02*
X164929999Y-126906000D01*
X164929999Y-126906000D02*
X164882380Y-126929809D01*
X164882380Y-126929809D02*
X164834761Y-126929809D01*
X164834761Y-126929809D02*
X164787142Y-126906000D01*
X164787142Y-126906000D02*
X164763333Y-126882190D01*
X164763333Y-126882190D02*
X164739523Y-126834571D01*
X164739523Y-126834571D02*
X164715714Y-126739333D01*
X164715714Y-126739333D02*
X164715714Y-126620285D01*
X164715714Y-126620285D02*
X164739523Y-126525047D01*
X164739523Y-126525047D02*
X164763333Y-126477428D01*
X164763333Y-126477428D02*
X164787142Y-126453619D01*
X164787142Y-126453619D02*
X164834761Y-126429809D01*
D11*
X133884819Y-113631904D02*
X134694342Y-113631904D01*
X134694342Y-113631904D02*
X134789580Y-113584285D01*
X134789580Y-113584285D02*
X134837200Y-113536666D01*
X134837200Y-113536666D02*
X134884819Y-113441428D01*
X134884819Y-113441428D02*
X134884819Y-113250952D01*
X134884819Y-113250952D02*
X134837200Y-113155714D01*
X134837200Y-113155714D02*
X134789580Y-113108095D01*
X134789580Y-113108095D02*
X134694342Y-113060476D01*
X134694342Y-113060476D02*
X133884819Y-113060476D01*
X134884819Y-112060476D02*
X134884819Y-112631904D01*
X134884819Y-112346190D02*
X133884819Y-112346190D01*
X133884819Y-112346190D02*
X134027676Y-112441428D01*
X134027676Y-112441428D02*
X134122914Y-112536666D01*
X134122914Y-112536666D02*
X134170533Y-112631904D01*
X154063333Y-95049580D02*
X154015714Y-95097200D01*
X154015714Y-95097200D02*
X153872857Y-95144819D01*
X153872857Y-95144819D02*
X153777619Y-95144819D01*
X153777619Y-95144819D02*
X153634762Y-95097200D01*
X153634762Y-95097200D02*
X153539524Y-95001961D01*
X153539524Y-95001961D02*
X153491905Y-94906723D01*
X153491905Y-94906723D02*
X153444286Y-94716247D01*
X153444286Y-94716247D02*
X153444286Y-94573390D01*
X153444286Y-94573390D02*
X153491905Y-94382914D01*
X153491905Y-94382914D02*
X153539524Y-94287676D01*
X153539524Y-94287676D02*
X153634762Y-94192438D01*
X153634762Y-94192438D02*
X153777619Y-94144819D01*
X153777619Y-94144819D02*
X153872857Y-94144819D01*
X153872857Y-94144819D02*
X154015714Y-94192438D01*
X154015714Y-94192438D02*
X154063333Y-94240057D01*
X154396667Y-94144819D02*
X155063333Y-94144819D01*
X155063333Y-94144819D02*
X154634762Y-95144819D01*
X148307142Y-140844580D02*
X148259523Y-140892200D01*
X148259523Y-140892200D02*
X148116666Y-140939819D01*
X148116666Y-140939819D02*
X148021428Y-140939819D01*
X148021428Y-140939819D02*
X147878571Y-140892200D01*
X147878571Y-140892200D02*
X147783333Y-140796961D01*
X147783333Y-140796961D02*
X147735714Y-140701723D01*
X147735714Y-140701723D02*
X147688095Y-140511247D01*
X147688095Y-140511247D02*
X147688095Y-140368390D01*
X147688095Y-140368390D02*
X147735714Y-140177914D01*
X147735714Y-140177914D02*
X147783333Y-140082676D01*
X147783333Y-140082676D02*
X147878571Y-139987438D01*
X147878571Y-139987438D02*
X148021428Y-139939819D01*
X148021428Y-139939819D02*
X148116666Y-139939819D01*
X148116666Y-139939819D02*
X148259523Y-139987438D01*
X148259523Y-139987438D02*
X148307142Y-140035057D01*
X149259523Y-140939819D02*
X148688095Y-140939819D01*
X148973809Y-140939819D02*
X148973809Y-139939819D01*
X148973809Y-139939819D02*
X148878571Y-140082676D01*
X148878571Y-140082676D02*
X148783333Y-140177914D01*
X148783333Y-140177914D02*
X148688095Y-140225533D01*
X149878571Y-139939819D02*
X149973809Y-139939819D01*
X149973809Y-139939819D02*
X150069047Y-139987438D01*
X150069047Y-139987438D02*
X150116666Y-140035057D01*
X150116666Y-140035057D02*
X150164285Y-140130295D01*
X150164285Y-140130295D02*
X150211904Y-140320771D01*
X150211904Y-140320771D02*
X150211904Y-140558866D01*
X150211904Y-140558866D02*
X150164285Y-140749342D01*
X150164285Y-140749342D02*
X150116666Y-140844580D01*
X150116666Y-140844580D02*
X150069047Y-140892200D01*
X150069047Y-140892200D02*
X149973809Y-140939819D01*
X149973809Y-140939819D02*
X149878571Y-140939819D01*
X149878571Y-140939819D02*
X149783333Y-140892200D01*
X149783333Y-140892200D02*
X149735714Y-140844580D01*
X149735714Y-140844580D02*
X149688095Y-140749342D01*
X149688095Y-140749342D02*
X149640476Y-140558866D01*
X149640476Y-140558866D02*
X149640476Y-140320771D01*
X149640476Y-140320771D02*
X149688095Y-140130295D01*
X149688095Y-140130295D02*
X149735714Y-140035057D01*
X149735714Y-140035057D02*
X149783333Y-139987438D01*
X149783333Y-139987438D02*
X149878571Y-139939819D01*
X153884819Y-133132857D02*
X153408628Y-133466190D01*
X153884819Y-133704285D02*
X152884819Y-133704285D01*
X152884819Y-133704285D02*
X152884819Y-133323333D01*
X152884819Y-133323333D02*
X152932438Y-133228095D01*
X152932438Y-133228095D02*
X152980057Y-133180476D01*
X152980057Y-133180476D02*
X153075295Y-133132857D01*
X153075295Y-133132857D02*
X153218152Y-133132857D01*
X153218152Y-133132857D02*
X153313390Y-133180476D01*
X153313390Y-133180476D02*
X153361009Y-133228095D01*
X153361009Y-133228095D02*
X153408628Y-133323333D01*
X153408628Y-133323333D02*
X153408628Y-133704285D01*
X153884819Y-132180476D02*
X153884819Y-132751904D01*
X153884819Y-132466190D02*
X152884819Y-132466190D01*
X152884819Y-132466190D02*
X153027676Y-132561428D01*
X153027676Y-132561428D02*
X153122914Y-132656666D01*
X153122914Y-132656666D02*
X153170533Y-132751904D01*
X152884819Y-131847142D02*
X152884819Y-131180476D01*
X152884819Y-131180476D02*
X153884819Y-131609047D01*
X157384819Y-133132857D02*
X156908628Y-133466190D01*
X157384819Y-133704285D02*
X156384819Y-133704285D01*
X156384819Y-133704285D02*
X156384819Y-133323333D01*
X156384819Y-133323333D02*
X156432438Y-133228095D01*
X156432438Y-133228095D02*
X156480057Y-133180476D01*
X156480057Y-133180476D02*
X156575295Y-133132857D01*
X156575295Y-133132857D02*
X156718152Y-133132857D01*
X156718152Y-133132857D02*
X156813390Y-133180476D01*
X156813390Y-133180476D02*
X156861009Y-133228095D01*
X156861009Y-133228095D02*
X156908628Y-133323333D01*
X156908628Y-133323333D02*
X156908628Y-133704285D01*
X157384819Y-132180476D02*
X157384819Y-132751904D01*
X157384819Y-132466190D02*
X156384819Y-132466190D01*
X156384819Y-132466190D02*
X156527676Y-132561428D01*
X156527676Y-132561428D02*
X156622914Y-132656666D01*
X156622914Y-132656666D02*
X156670533Y-132751904D01*
X157384819Y-131704285D02*
X157384819Y-131513809D01*
X157384819Y-131513809D02*
X157337200Y-131418571D01*
X157337200Y-131418571D02*
X157289580Y-131370952D01*
X157289580Y-131370952D02*
X157146723Y-131275714D01*
X157146723Y-131275714D02*
X156956247Y-131228095D01*
X156956247Y-131228095D02*
X156575295Y-131228095D01*
X156575295Y-131228095D02*
X156480057Y-131275714D01*
X156480057Y-131275714D02*
X156432438Y-131323333D01*
X156432438Y-131323333D02*
X156384819Y-131418571D01*
X156384819Y-131418571D02*
X156384819Y-131609047D01*
X156384819Y-131609047D02*
X156432438Y-131704285D01*
X156432438Y-131704285D02*
X156480057Y-131751904D01*
X156480057Y-131751904D02*
X156575295Y-131799523D01*
X156575295Y-131799523D02*
X156813390Y-131799523D01*
X156813390Y-131799523D02*
X156908628Y-131751904D01*
X156908628Y-131751904D02*
X156956247Y-131704285D01*
X156956247Y-131704285D02*
X157003866Y-131609047D01*
X157003866Y-131609047D02*
X157003866Y-131418571D01*
X157003866Y-131418571D02*
X156956247Y-131323333D01*
X156956247Y-131323333D02*
X156908628Y-131275714D01*
X156908628Y-131275714D02*
X156813390Y-131228095D01*
D13*
X123763333Y-137714809D02*
X123763333Y-138071952D01*
X123763333Y-138071952D02*
X123739524Y-138143380D01*
X123739524Y-138143380D02*
X123691905Y-138191000D01*
X123691905Y-138191000D02*
X123620476Y-138214809D01*
X123620476Y-138214809D02*
X123572857Y-138214809D01*
X124001428Y-138214809D02*
X124001428Y-137714809D01*
X124001428Y-137714809D02*
X124191904Y-137714809D01*
X124191904Y-137714809D02*
X124239523Y-137738619D01*
X124239523Y-137738619D02*
X124263333Y-137762428D01*
X124263333Y-137762428D02*
X124287142Y-137810047D01*
X124287142Y-137810047D02*
X124287142Y-137881476D01*
X124287142Y-137881476D02*
X124263333Y-137929095D01*
X124263333Y-137929095D02*
X124239523Y-137952904D01*
X124239523Y-137952904D02*
X124191904Y-137976714D01*
X124191904Y-137976714D02*
X124001428Y-137976714D01*
X124763333Y-138214809D02*
X124477619Y-138214809D01*
X124620476Y-138214809D02*
X124620476Y-137714809D01*
X124620476Y-137714809D02*
X124572857Y-137786238D01*
X124572857Y-137786238D02*
X124525238Y-137833857D01*
X124525238Y-137833857D02*
X124477619Y-137857666D01*
D11*
X123884819Y-132656666D02*
X123408628Y-132989999D01*
X123884819Y-133228094D02*
X122884819Y-133228094D01*
X122884819Y-133228094D02*
X122884819Y-132847142D01*
X122884819Y-132847142D02*
X122932438Y-132751904D01*
X122932438Y-132751904D02*
X122980057Y-132704285D01*
X122980057Y-132704285D02*
X123075295Y-132656666D01*
X123075295Y-132656666D02*
X123218152Y-132656666D01*
X123218152Y-132656666D02*
X123313390Y-132704285D01*
X123313390Y-132704285D02*
X123361009Y-132751904D01*
X123361009Y-132751904D02*
X123408628Y-132847142D01*
X123408628Y-132847142D02*
X123408628Y-133228094D01*
X123884819Y-131704285D02*
X123884819Y-132275713D01*
X123884819Y-131989999D02*
X122884819Y-131989999D01*
X122884819Y-131989999D02*
X123027676Y-132085237D01*
X123027676Y-132085237D02*
X123122914Y-132180475D01*
X123122914Y-132180475D02*
X123170533Y-132275713D01*
X131044819Y-78701904D02*
X131854342Y-78701904D01*
X131854342Y-78701904D02*
X131949580Y-78654285D01*
X131949580Y-78654285D02*
X131997200Y-78606666D01*
X131997200Y-78606666D02*
X132044819Y-78511428D01*
X132044819Y-78511428D02*
X132044819Y-78320952D01*
X132044819Y-78320952D02*
X131997200Y-78225714D01*
X131997200Y-78225714D02*
X131949580Y-78178095D01*
X131949580Y-78178095D02*
X131854342Y-78130476D01*
X131854342Y-78130476D02*
X131044819Y-78130476D01*
X131044819Y-77749523D02*
X131044819Y-77130476D01*
X131044819Y-77130476D02*
X131425771Y-77463809D01*
X131425771Y-77463809D02*
X131425771Y-77320952D01*
X131425771Y-77320952D02*
X131473390Y-77225714D01*
X131473390Y-77225714D02*
X131521009Y-77178095D01*
X131521009Y-77178095D02*
X131616247Y-77130476D01*
X131616247Y-77130476D02*
X131854342Y-77130476D01*
X131854342Y-77130476D02*
X131949580Y-77178095D01*
X131949580Y-77178095D02*
X131997200Y-77225714D01*
X131997200Y-77225714D02*
X132044819Y-77320952D01*
X132044819Y-77320952D02*
X132044819Y-77606666D01*
X132044819Y-77606666D02*
X131997200Y-77701904D01*
X131997200Y-77701904D02*
X131949580Y-77749523D01*
X160731009Y-71439047D02*
X160778628Y-71296190D01*
X160778628Y-71296190D02*
X160826247Y-71248571D01*
X160826247Y-71248571D02*
X160921485Y-71200952D01*
X160921485Y-71200952D02*
X161064342Y-71200952D01*
X161064342Y-71200952D02*
X161159580Y-71248571D01*
X161159580Y-71248571D02*
X161207200Y-71296190D01*
X161207200Y-71296190D02*
X161254819Y-71391428D01*
X161254819Y-71391428D02*
X161254819Y-71772380D01*
X161254819Y-71772380D02*
X160254819Y-71772380D01*
X160254819Y-71772380D02*
X160254819Y-71439047D01*
X160254819Y-71439047D02*
X160302438Y-71343809D01*
X160302438Y-71343809D02*
X160350057Y-71296190D01*
X160350057Y-71296190D02*
X160445295Y-71248571D01*
X160445295Y-71248571D02*
X160540533Y-71248571D01*
X160540533Y-71248571D02*
X160635771Y-71296190D01*
X160635771Y-71296190D02*
X160683390Y-71343809D01*
X160683390Y-71343809D02*
X160731009Y-71439047D01*
X160731009Y-71439047D02*
X160731009Y-71772380D01*
X161254819Y-70629523D02*
X161207200Y-70724761D01*
X161207200Y-70724761D02*
X161159580Y-70772380D01*
X161159580Y-70772380D02*
X161064342Y-70819999D01*
X161064342Y-70819999D02*
X160778628Y-70819999D01*
X160778628Y-70819999D02*
X160683390Y-70772380D01*
X160683390Y-70772380D02*
X160635771Y-70724761D01*
X160635771Y-70724761D02*
X160588152Y-70629523D01*
X160588152Y-70629523D02*
X160588152Y-70486666D01*
X160588152Y-70486666D02*
X160635771Y-70391428D01*
X160635771Y-70391428D02*
X160683390Y-70343809D01*
X160683390Y-70343809D02*
X160778628Y-70296190D01*
X160778628Y-70296190D02*
X161064342Y-70296190D01*
X161064342Y-70296190D02*
X161159580Y-70343809D01*
X161159580Y-70343809D02*
X161207200Y-70391428D01*
X161207200Y-70391428D02*
X161254819Y-70486666D01*
X161254819Y-70486666D02*
X161254819Y-70629523D01*
X161254819Y-69724761D02*
X161207200Y-69819999D01*
X161207200Y-69819999D02*
X161159580Y-69867618D01*
X161159580Y-69867618D02*
X161064342Y-69915237D01*
X161064342Y-69915237D02*
X160778628Y-69915237D01*
X160778628Y-69915237D02*
X160683390Y-69867618D01*
X160683390Y-69867618D02*
X160635771Y-69819999D01*
X160635771Y-69819999D02*
X160588152Y-69724761D01*
X160588152Y-69724761D02*
X160588152Y-69581904D01*
X160588152Y-69581904D02*
X160635771Y-69486666D01*
X160635771Y-69486666D02*
X160683390Y-69439047D01*
X160683390Y-69439047D02*
X160778628Y-69391428D01*
X160778628Y-69391428D02*
X161064342Y-69391428D01*
X161064342Y-69391428D02*
X161159580Y-69439047D01*
X161159580Y-69439047D02*
X161207200Y-69486666D01*
X161207200Y-69486666D02*
X161254819Y-69581904D01*
X161254819Y-69581904D02*
X161254819Y-69724761D01*
X160588152Y-69105713D02*
X160588152Y-68724761D01*
X160254819Y-68962856D02*
X161111961Y-68962856D01*
X161111961Y-68962856D02*
X161207200Y-68915237D01*
X161207200Y-68915237D02*
X161254819Y-68819999D01*
X161254819Y-68819999D02*
X161254819Y-68724761D01*
X164064819Y-79201904D02*
X164874342Y-79201904D01*
X164874342Y-79201904D02*
X164969580Y-79154285D01*
X164969580Y-79154285D02*
X165017200Y-79106666D01*
X165017200Y-79106666D02*
X165064819Y-79011428D01*
X165064819Y-79011428D02*
X165064819Y-78820952D01*
X165064819Y-78820952D02*
X165017200Y-78725714D01*
X165017200Y-78725714D02*
X164969580Y-78678095D01*
X164969580Y-78678095D02*
X164874342Y-78630476D01*
X164874342Y-78630476D02*
X164064819Y-78630476D01*
X165017200Y-78201904D02*
X165064819Y-78059047D01*
X165064819Y-78059047D02*
X165064819Y-77820952D01*
X165064819Y-77820952D02*
X165017200Y-77725714D01*
X165017200Y-77725714D02*
X164969580Y-77678095D01*
X164969580Y-77678095D02*
X164874342Y-77630476D01*
X164874342Y-77630476D02*
X164779104Y-77630476D01*
X164779104Y-77630476D02*
X164683866Y-77678095D01*
X164683866Y-77678095D02*
X164636247Y-77725714D01*
X164636247Y-77725714D02*
X164588628Y-77820952D01*
X164588628Y-77820952D02*
X164541009Y-78011428D01*
X164541009Y-78011428D02*
X164493390Y-78106666D01*
X164493390Y-78106666D02*
X164445771Y-78154285D01*
X164445771Y-78154285D02*
X164350533Y-78201904D01*
X164350533Y-78201904D02*
X164255295Y-78201904D01*
X164255295Y-78201904D02*
X164160057Y-78154285D01*
X164160057Y-78154285D02*
X164112438Y-78106666D01*
X164112438Y-78106666D02*
X164064819Y-78011428D01*
X164064819Y-78011428D02*
X164064819Y-77773333D01*
X164064819Y-77773333D02*
X164112438Y-77630476D01*
X164541009Y-76868571D02*
X164588628Y-76725714D01*
X164588628Y-76725714D02*
X164636247Y-76678095D01*
X164636247Y-76678095D02*
X164731485Y-76630476D01*
X164731485Y-76630476D02*
X164874342Y-76630476D01*
X164874342Y-76630476D02*
X164969580Y-76678095D01*
X164969580Y-76678095D02*
X165017200Y-76725714D01*
X165017200Y-76725714D02*
X165064819Y-76820952D01*
X165064819Y-76820952D02*
X165064819Y-77201904D01*
X165064819Y-77201904D02*
X164064819Y-77201904D01*
X164064819Y-77201904D02*
X164064819Y-76868571D01*
X164064819Y-76868571D02*
X164112438Y-76773333D01*
X164112438Y-76773333D02*
X164160057Y-76725714D01*
X164160057Y-76725714D02*
X164255295Y-76678095D01*
X164255295Y-76678095D02*
X164350533Y-76678095D01*
X164350533Y-76678095D02*
X164445771Y-76725714D01*
X164445771Y-76725714D02*
X164493390Y-76773333D01*
X164493390Y-76773333D02*
X164541009Y-76868571D01*
X164541009Y-76868571D02*
X164541009Y-77201904D01*
X160731009Y-87821904D02*
X160731009Y-87488571D01*
X161254819Y-87345714D02*
X161254819Y-87821904D01*
X161254819Y-87821904D02*
X160254819Y-87821904D01*
X160254819Y-87821904D02*
X160254819Y-87345714D01*
X160588152Y-86917142D02*
X161254819Y-86917142D01*
X160683390Y-86917142D02*
X160635771Y-86869523D01*
X160635771Y-86869523D02*
X160588152Y-86774285D01*
X160588152Y-86774285D02*
X160588152Y-86631428D01*
X160588152Y-86631428D02*
X160635771Y-86536190D01*
X160635771Y-86536190D02*
X160731009Y-86488571D01*
X160731009Y-86488571D02*
X161254819Y-86488571D01*
X161254819Y-85583809D02*
X160731009Y-85583809D01*
X160731009Y-85583809D02*
X160635771Y-85631428D01*
X160635771Y-85631428D02*
X160588152Y-85726666D01*
X160588152Y-85726666D02*
X160588152Y-85917142D01*
X160588152Y-85917142D02*
X160635771Y-86012380D01*
X161207200Y-85583809D02*
X161254819Y-85679047D01*
X161254819Y-85679047D02*
X161254819Y-85917142D01*
X161254819Y-85917142D02*
X161207200Y-86012380D01*
X161207200Y-86012380D02*
X161111961Y-86059999D01*
X161111961Y-86059999D02*
X161016723Y-86059999D01*
X161016723Y-86059999D02*
X160921485Y-86012380D01*
X160921485Y-86012380D02*
X160873866Y-85917142D01*
X160873866Y-85917142D02*
X160873866Y-85679047D01*
X160873866Y-85679047D02*
X160826247Y-85583809D01*
X161254819Y-85107618D02*
X160254819Y-85107618D01*
X160635771Y-85107618D02*
X160588152Y-85012380D01*
X160588152Y-85012380D02*
X160588152Y-84821904D01*
X160588152Y-84821904D02*
X160635771Y-84726666D01*
X160635771Y-84726666D02*
X160683390Y-84679047D01*
X160683390Y-84679047D02*
X160778628Y-84631428D01*
X160778628Y-84631428D02*
X161064342Y-84631428D01*
X161064342Y-84631428D02*
X161159580Y-84679047D01*
X161159580Y-84679047D02*
X161207200Y-84726666D01*
X161207200Y-84726666D02*
X161254819Y-84821904D01*
X161254819Y-84821904D02*
X161254819Y-85012380D01*
X161254819Y-85012380D02*
X161207200Y-85107618D01*
X161254819Y-84059999D02*
X161207200Y-84155237D01*
X161207200Y-84155237D02*
X161111961Y-84202856D01*
X161111961Y-84202856D02*
X160254819Y-84202856D01*
X161207200Y-83298094D02*
X161254819Y-83393332D01*
X161254819Y-83393332D02*
X161254819Y-83583808D01*
X161254819Y-83583808D02*
X161207200Y-83679046D01*
X161207200Y-83679046D02*
X161111961Y-83726665D01*
X161111961Y-83726665D02*
X160731009Y-83726665D01*
X160731009Y-83726665D02*
X160635771Y-83679046D01*
X160635771Y-83679046D02*
X160588152Y-83583808D01*
X160588152Y-83583808D02*
X160588152Y-83393332D01*
X160588152Y-83393332D02*
X160635771Y-83298094D01*
X160635771Y-83298094D02*
X160731009Y-83250475D01*
X160731009Y-83250475D02*
X160826247Y-83250475D01*
X160826247Y-83250475D02*
X160921485Y-83726665D01*
X120384819Y-133132857D02*
X119908628Y-133466190D01*
X120384819Y-133704285D02*
X119384819Y-133704285D01*
X119384819Y-133704285D02*
X119384819Y-133323333D01*
X119384819Y-133323333D02*
X119432438Y-133228095D01*
X119432438Y-133228095D02*
X119480057Y-133180476D01*
X119480057Y-133180476D02*
X119575295Y-133132857D01*
X119575295Y-133132857D02*
X119718152Y-133132857D01*
X119718152Y-133132857D02*
X119813390Y-133180476D01*
X119813390Y-133180476D02*
X119861009Y-133228095D01*
X119861009Y-133228095D02*
X119908628Y-133323333D01*
X119908628Y-133323333D02*
X119908628Y-133704285D01*
X120384819Y-132180476D02*
X120384819Y-132751904D01*
X120384819Y-132466190D02*
X119384819Y-132466190D01*
X119384819Y-132466190D02*
X119527676Y-132561428D01*
X119527676Y-132561428D02*
X119622914Y-132656666D01*
X119622914Y-132656666D02*
X119670533Y-132751904D01*
X120384819Y-131228095D02*
X120384819Y-131799523D01*
X120384819Y-131513809D02*
X119384819Y-131513809D01*
X119384819Y-131513809D02*
X119527676Y-131609047D01*
X119527676Y-131609047D02*
X119622914Y-131704285D01*
X119622914Y-131704285D02*
X119670533Y-131799523D01*
X146884819Y-133132857D02*
X146408628Y-133466190D01*
X146884819Y-133704285D02*
X145884819Y-133704285D01*
X145884819Y-133704285D02*
X145884819Y-133323333D01*
X145884819Y-133323333D02*
X145932438Y-133228095D01*
X145932438Y-133228095D02*
X145980057Y-133180476D01*
X145980057Y-133180476D02*
X146075295Y-133132857D01*
X146075295Y-133132857D02*
X146218152Y-133132857D01*
X146218152Y-133132857D02*
X146313390Y-133180476D01*
X146313390Y-133180476D02*
X146361009Y-133228095D01*
X146361009Y-133228095D02*
X146408628Y-133323333D01*
X146408628Y-133323333D02*
X146408628Y-133704285D01*
X146884819Y-132180476D02*
X146884819Y-132751904D01*
X146884819Y-132466190D02*
X145884819Y-132466190D01*
X145884819Y-132466190D02*
X146027676Y-132561428D01*
X146027676Y-132561428D02*
X146122914Y-132656666D01*
X146122914Y-132656666D02*
X146170533Y-132751904D01*
X146313390Y-131609047D02*
X146265771Y-131704285D01*
X146265771Y-131704285D02*
X146218152Y-131751904D01*
X146218152Y-131751904D02*
X146122914Y-131799523D01*
X146122914Y-131799523D02*
X146075295Y-131799523D01*
X146075295Y-131799523D02*
X145980057Y-131751904D01*
X145980057Y-131751904D02*
X145932438Y-131704285D01*
X145932438Y-131704285D02*
X145884819Y-131609047D01*
X145884819Y-131609047D02*
X145884819Y-131418571D01*
X145884819Y-131418571D02*
X145932438Y-131323333D01*
X145932438Y-131323333D02*
X145980057Y-131275714D01*
X145980057Y-131275714D02*
X146075295Y-131228095D01*
X146075295Y-131228095D02*
X146122914Y-131228095D01*
X146122914Y-131228095D02*
X146218152Y-131275714D01*
X146218152Y-131275714D02*
X146265771Y-131323333D01*
X146265771Y-131323333D02*
X146313390Y-131418571D01*
X146313390Y-131418571D02*
X146313390Y-131609047D01*
X146313390Y-131609047D02*
X146361009Y-131704285D01*
X146361009Y-131704285D02*
X146408628Y-131751904D01*
X146408628Y-131751904D02*
X146503866Y-131799523D01*
X146503866Y-131799523D02*
X146694342Y-131799523D01*
X146694342Y-131799523D02*
X146789580Y-131751904D01*
X146789580Y-131751904D02*
X146837200Y-131704285D01*
X146837200Y-131704285D02*
X146884819Y-131609047D01*
X146884819Y-131609047D02*
X146884819Y-131418571D01*
X146884819Y-131418571D02*
X146837200Y-131323333D01*
X146837200Y-131323333D02*
X146789580Y-131275714D01*
X146789580Y-131275714D02*
X146694342Y-131228095D01*
X146694342Y-131228095D02*
X146503866Y-131228095D01*
X146503866Y-131228095D02*
X146408628Y-131275714D01*
X146408628Y-131275714D02*
X146361009Y-131323333D01*
X146361009Y-131323333D02*
X146313390Y-131418571D01*
D13*
X157763333Y-137714809D02*
X157763333Y-138071952D01*
X157763333Y-138071952D02*
X157739524Y-138143380D01*
X157739524Y-138143380D02*
X157691905Y-138191000D01*
X157691905Y-138191000D02*
X157620476Y-138214809D01*
X157620476Y-138214809D02*
X157572857Y-138214809D01*
X158001428Y-138214809D02*
X158001428Y-137714809D01*
X158001428Y-137714809D02*
X158191904Y-137714809D01*
X158191904Y-137714809D02*
X158239523Y-137738619D01*
X158239523Y-137738619D02*
X158263333Y-137762428D01*
X158263333Y-137762428D02*
X158287142Y-137810047D01*
X158287142Y-137810047D02*
X158287142Y-137881476D01*
X158287142Y-137881476D02*
X158263333Y-137929095D01*
X158263333Y-137929095D02*
X158239523Y-137952904D01*
X158239523Y-137952904D02*
X158191904Y-137976714D01*
X158191904Y-137976714D02*
X158001428Y-137976714D01*
X158453809Y-137714809D02*
X158763333Y-137714809D01*
X158763333Y-137714809D02*
X158596666Y-137905285D01*
X158596666Y-137905285D02*
X158668095Y-137905285D01*
X158668095Y-137905285D02*
X158715714Y-137929095D01*
X158715714Y-137929095D02*
X158739523Y-137952904D01*
X158739523Y-137952904D02*
X158763333Y-138000523D01*
X158763333Y-138000523D02*
X158763333Y-138119571D01*
X158763333Y-138119571D02*
X158739523Y-138167190D01*
X158739523Y-138167190D02*
X158715714Y-138191000D01*
X158715714Y-138191000D02*
X158668095Y-138214809D01*
X158668095Y-138214809D02*
X158525238Y-138214809D01*
X158525238Y-138214809D02*
X158477619Y-138191000D01*
X158477619Y-138191000D02*
X158453809Y-138167190D01*
D11*
X119513333Y-97944819D02*
X119180000Y-97468628D01*
X118941905Y-97944819D02*
X118941905Y-96944819D01*
X118941905Y-96944819D02*
X119322857Y-96944819D01*
X119322857Y-96944819D02*
X119418095Y-96992438D01*
X119418095Y-96992438D02*
X119465714Y-97040057D01*
X119465714Y-97040057D02*
X119513333Y-97135295D01*
X119513333Y-97135295D02*
X119513333Y-97278152D01*
X119513333Y-97278152D02*
X119465714Y-97373390D01*
X119465714Y-97373390D02*
X119418095Y-97421009D01*
X119418095Y-97421009D02*
X119322857Y-97468628D01*
X119322857Y-97468628D02*
X118941905Y-97468628D01*
X120370476Y-97278152D02*
X120370476Y-97944819D01*
X120132381Y-96897200D02*
X119894286Y-97611485D01*
X119894286Y-97611485D02*
X120513333Y-97611485D01*
X134576666Y-148144819D02*
X134576666Y-148859104D01*
X134576666Y-148859104D02*
X134529047Y-149001961D01*
X134529047Y-149001961D02*
X134433809Y-149097200D01*
X134433809Y-149097200D02*
X134290952Y-149144819D01*
X134290952Y-149144819D02*
X134195714Y-149144819D01*
X135005238Y-148240057D02*
X135052857Y-148192438D01*
X135052857Y-148192438D02*
X135148095Y-148144819D01*
X135148095Y-148144819D02*
X135386190Y-148144819D01*
X135386190Y-148144819D02*
X135481428Y-148192438D01*
X135481428Y-148192438D02*
X135529047Y-148240057D01*
X135529047Y-148240057D02*
X135576666Y-148335295D01*
X135576666Y-148335295D02*
X135576666Y-148430533D01*
X135576666Y-148430533D02*
X135529047Y-148573390D01*
X135529047Y-148573390D02*
X134957619Y-149144819D01*
X134957619Y-149144819D02*
X135576666Y-149144819D01*
D12*
X132898570Y-146821978D02*
X132898570Y-147421978D01*
X132898570Y-147421978D02*
X132755713Y-147421978D01*
X132755713Y-147421978D02*
X132669999Y-147393407D01*
X132669999Y-147393407D02*
X132612856Y-147336264D01*
X132612856Y-147336264D02*
X132584285Y-147279121D01*
X132584285Y-147279121D02*
X132555713Y-147164835D01*
X132555713Y-147164835D02*
X132555713Y-147079121D01*
X132555713Y-147079121D02*
X132584285Y-146964835D01*
X132584285Y-146964835D02*
X132612856Y-146907692D01*
X132612856Y-146907692D02*
X132669999Y-146850550D01*
X132669999Y-146850550D02*
X132755713Y-146821978D01*
X132755713Y-146821978D02*
X132898570Y-146821978D01*
X132298570Y-147050550D02*
X131841428Y-147050550D01*
X130844285Y-147421978D02*
X130644285Y-146821978D01*
X130644285Y-146821978D02*
X130444285Y-147421978D01*
X130044284Y-147136264D02*
X129958570Y-147107692D01*
X129958570Y-147107692D02*
X129929999Y-147079121D01*
X129929999Y-147079121D02*
X129901427Y-147021978D01*
X129901427Y-147021978D02*
X129901427Y-146936264D01*
X129901427Y-146936264D02*
X129929999Y-146879121D01*
X129929999Y-146879121D02*
X129958570Y-146850550D01*
X129958570Y-146850550D02*
X130015713Y-146821978D01*
X130015713Y-146821978D02*
X130244284Y-146821978D01*
X130244284Y-146821978D02*
X130244284Y-147421978D01*
X130244284Y-147421978D02*
X130044284Y-147421978D01*
X130044284Y-147421978D02*
X129987142Y-147393407D01*
X129987142Y-147393407D02*
X129958570Y-147364835D01*
X129958570Y-147364835D02*
X129929999Y-147307692D01*
X129929999Y-147307692D02*
X129929999Y-147250550D01*
X129929999Y-147250550D02*
X129958570Y-147193407D01*
X129958570Y-147193407D02*
X129987142Y-147164835D01*
X129987142Y-147164835D02*
X130044284Y-147136264D01*
X130044284Y-147136264D02*
X130244284Y-147136264D01*
X129387142Y-147221978D02*
X129387142Y-146821978D01*
X129644284Y-147221978D02*
X129644284Y-146907692D01*
X129644284Y-146907692D02*
X129615713Y-146850550D01*
X129615713Y-146850550D02*
X129558570Y-146821978D01*
X129558570Y-146821978D02*
X129472856Y-146821978D01*
X129472856Y-146821978D02*
X129415713Y-146850550D01*
X129415713Y-146850550D02*
X129387142Y-146879121D01*
X129129999Y-146850550D02*
X129072856Y-146821978D01*
X129072856Y-146821978D02*
X128958570Y-146821978D01*
X128958570Y-146821978D02*
X128901427Y-146850550D01*
X128901427Y-146850550D02*
X128872856Y-146907692D01*
X128872856Y-146907692D02*
X128872856Y-146936264D01*
X128872856Y-146936264D02*
X128901427Y-146993407D01*
X128901427Y-146993407D02*
X128958570Y-147021978D01*
X128958570Y-147021978D02*
X129044285Y-147021978D01*
X129044285Y-147021978D02*
X129101427Y-147050550D01*
X129101427Y-147050550D02*
X129129999Y-147107692D01*
X129129999Y-147107692D02*
X129129999Y-147136264D01*
X129129999Y-147136264D02*
X129101427Y-147193407D01*
X129101427Y-147193407D02*
X129044285Y-147221978D01*
X129044285Y-147221978D02*
X128958570Y-147221978D01*
X128958570Y-147221978D02*
X128901427Y-147193407D01*
X137749999Y-146821978D02*
X137749999Y-147421978D01*
X137464285Y-146821978D02*
X137464285Y-147421978D01*
X137464285Y-147421978D02*
X137321428Y-147421978D01*
X137321428Y-147421978D02*
X137235714Y-147393407D01*
X137235714Y-147393407D02*
X137178571Y-147336264D01*
X137178571Y-147336264D02*
X137150000Y-147279121D01*
X137150000Y-147279121D02*
X137121428Y-147164835D01*
X137121428Y-147164835D02*
X137121428Y-147079121D01*
X137121428Y-147079121D02*
X137150000Y-146964835D01*
X137150000Y-146964835D02*
X137178571Y-146907692D01*
X137178571Y-146907692D02*
X137235714Y-146850550D01*
X137235714Y-146850550D02*
X137321428Y-146821978D01*
X137321428Y-146821978D02*
X137464285Y-146821978D01*
X135438570Y-146821978D02*
X135438570Y-147421978D01*
X135438570Y-147421978D02*
X135295713Y-147421978D01*
X135295713Y-147421978D02*
X135209999Y-147393407D01*
X135209999Y-147393407D02*
X135152856Y-147336264D01*
X135152856Y-147336264D02*
X135124285Y-147279121D01*
X135124285Y-147279121D02*
X135095713Y-147164835D01*
X135095713Y-147164835D02*
X135095713Y-147079121D01*
X135095713Y-147079121D02*
X135124285Y-146964835D01*
X135124285Y-146964835D02*
X135152856Y-146907692D01*
X135152856Y-146907692D02*
X135209999Y-146850550D01*
X135209999Y-146850550D02*
X135295713Y-146821978D01*
X135295713Y-146821978D02*
X135438570Y-146821978D01*
X134838570Y-147050550D02*
X134381428Y-147050550D01*
X134609999Y-146821978D02*
X134609999Y-147279121D01*
X140447142Y-147393407D02*
X140504285Y-147421978D01*
X140504285Y-147421978D02*
X140589999Y-147421978D01*
X140589999Y-147421978D02*
X140675713Y-147393407D01*
X140675713Y-147393407D02*
X140732856Y-147336264D01*
X140732856Y-147336264D02*
X140761427Y-147279121D01*
X140761427Y-147279121D02*
X140789999Y-147164835D01*
X140789999Y-147164835D02*
X140789999Y-147079121D01*
X140789999Y-147079121D02*
X140761427Y-146964835D01*
X140761427Y-146964835D02*
X140732856Y-146907692D01*
X140732856Y-146907692D02*
X140675713Y-146850550D01*
X140675713Y-146850550D02*
X140589999Y-146821978D01*
X140589999Y-146821978D02*
X140532856Y-146821978D01*
X140532856Y-146821978D02*
X140447142Y-146850550D01*
X140447142Y-146850550D02*
X140418570Y-146879121D01*
X140418570Y-146879121D02*
X140418570Y-147079121D01*
X140418570Y-147079121D02*
X140532856Y-147079121D01*
X140161427Y-146821978D02*
X140161427Y-147421978D01*
X140161427Y-147421978D02*
X139818570Y-146821978D01*
X139818570Y-146821978D02*
X139818570Y-147421978D01*
X139532856Y-146821978D02*
X139532856Y-147421978D01*
X139532856Y-147421978D02*
X139389999Y-147421978D01*
X139389999Y-147421978D02*
X139304285Y-147393407D01*
X139304285Y-147393407D02*
X139247142Y-147336264D01*
X139247142Y-147336264D02*
X139218571Y-147279121D01*
X139218571Y-147279121D02*
X139189999Y-147164835D01*
X139189999Y-147164835D02*
X139189999Y-147079121D01*
X139189999Y-147079121D02*
X139218571Y-146964835D01*
X139218571Y-146964835D02*
X139247142Y-146907692D01*
X139247142Y-146907692D02*
X139304285Y-146850550D01*
X139304285Y-146850550D02*
X139389999Y-146821978D01*
X139389999Y-146821978D02*
X139532856Y-146821978D01*
D11*
X157287142Y-63099580D02*
X157239523Y-63147200D01*
X157239523Y-63147200D02*
X157096666Y-63194819D01*
X157096666Y-63194819D02*
X157001428Y-63194819D01*
X157001428Y-63194819D02*
X156858571Y-63147200D01*
X156858571Y-63147200D02*
X156763333Y-63051961D01*
X156763333Y-63051961D02*
X156715714Y-62956723D01*
X156715714Y-62956723D02*
X156668095Y-62766247D01*
X156668095Y-62766247D02*
X156668095Y-62623390D01*
X156668095Y-62623390D02*
X156715714Y-62432914D01*
X156715714Y-62432914D02*
X156763333Y-62337676D01*
X156763333Y-62337676D02*
X156858571Y-62242438D01*
X156858571Y-62242438D02*
X157001428Y-62194819D01*
X157001428Y-62194819D02*
X157096666Y-62194819D01*
X157096666Y-62194819D02*
X157239523Y-62242438D01*
X157239523Y-62242438D02*
X157287142Y-62290057D01*
X158239523Y-63194819D02*
X157668095Y-63194819D01*
X157953809Y-63194819D02*
X157953809Y-62194819D01*
X157953809Y-62194819D02*
X157858571Y-62337676D01*
X157858571Y-62337676D02*
X157763333Y-62432914D01*
X157763333Y-62432914D02*
X157668095Y-62480533D01*
X159191904Y-63194819D02*
X158620476Y-63194819D01*
X158906190Y-63194819D02*
X158906190Y-62194819D01*
X158906190Y-62194819D02*
X158810952Y-62337676D01*
X158810952Y-62337676D02*
X158715714Y-62432914D01*
X158715714Y-62432914D02*
X158620476Y-62480533D01*
D13*
X141263333Y-137714809D02*
X141263333Y-138071952D01*
X141263333Y-138071952D02*
X141239524Y-138143380D01*
X141239524Y-138143380D02*
X141191905Y-138191000D01*
X141191905Y-138191000D02*
X141120476Y-138214809D01*
X141120476Y-138214809D02*
X141072857Y-138214809D01*
X141501428Y-138214809D02*
X141501428Y-137714809D01*
X141501428Y-137714809D02*
X141691904Y-137714809D01*
X141691904Y-137714809D02*
X141739523Y-137738619D01*
X141739523Y-137738619D02*
X141763333Y-137762428D01*
X141763333Y-137762428D02*
X141787142Y-137810047D01*
X141787142Y-137810047D02*
X141787142Y-137881476D01*
X141787142Y-137881476D02*
X141763333Y-137929095D01*
X141763333Y-137929095D02*
X141739523Y-137952904D01*
X141739523Y-137952904D02*
X141691904Y-137976714D01*
X141691904Y-137976714D02*
X141501428Y-137976714D01*
X141977619Y-137762428D02*
X142001428Y-137738619D01*
X142001428Y-137738619D02*
X142049047Y-137714809D01*
X142049047Y-137714809D02*
X142168095Y-137714809D01*
X142168095Y-137714809D02*
X142215714Y-137738619D01*
X142215714Y-137738619D02*
X142239523Y-137762428D01*
X142239523Y-137762428D02*
X142263333Y-137810047D01*
X142263333Y-137810047D02*
X142263333Y-137857666D01*
X142263333Y-137857666D02*
X142239523Y-137929095D01*
X142239523Y-137929095D02*
X141953809Y-138214809D01*
X141953809Y-138214809D02*
X142263333Y-138214809D01*
D11*
X150384819Y-133132857D02*
X149908628Y-133466190D01*
X150384819Y-133704285D02*
X149384819Y-133704285D01*
X149384819Y-133704285D02*
X149384819Y-133323333D01*
X149384819Y-133323333D02*
X149432438Y-133228095D01*
X149432438Y-133228095D02*
X149480057Y-133180476D01*
X149480057Y-133180476D02*
X149575295Y-133132857D01*
X149575295Y-133132857D02*
X149718152Y-133132857D01*
X149718152Y-133132857D02*
X149813390Y-133180476D01*
X149813390Y-133180476D02*
X149861009Y-133228095D01*
X149861009Y-133228095D02*
X149908628Y-133323333D01*
X149908628Y-133323333D02*
X149908628Y-133704285D01*
X149480057Y-132751904D02*
X149432438Y-132704285D01*
X149432438Y-132704285D02*
X149384819Y-132609047D01*
X149384819Y-132609047D02*
X149384819Y-132370952D01*
X149384819Y-132370952D02*
X149432438Y-132275714D01*
X149432438Y-132275714D02*
X149480057Y-132228095D01*
X149480057Y-132228095D02*
X149575295Y-132180476D01*
X149575295Y-132180476D02*
X149670533Y-132180476D01*
X149670533Y-132180476D02*
X149813390Y-132228095D01*
X149813390Y-132228095D02*
X150384819Y-132799523D01*
X150384819Y-132799523D02*
X150384819Y-132180476D01*
X149384819Y-131561428D02*
X149384819Y-131466190D01*
X149384819Y-131466190D02*
X149432438Y-131370952D01*
X149432438Y-131370952D02*
X149480057Y-131323333D01*
X149480057Y-131323333D02*
X149575295Y-131275714D01*
X149575295Y-131275714D02*
X149765771Y-131228095D01*
X149765771Y-131228095D02*
X150003866Y-131228095D01*
X150003866Y-131228095D02*
X150194342Y-131275714D01*
X150194342Y-131275714D02*
X150289580Y-131323333D01*
X150289580Y-131323333D02*
X150337200Y-131370952D01*
X150337200Y-131370952D02*
X150384819Y-131466190D01*
X150384819Y-131466190D02*
X150384819Y-131561428D01*
X150384819Y-131561428D02*
X150337200Y-131656666D01*
X150337200Y-131656666D02*
X150289580Y-131704285D01*
X150289580Y-131704285D02*
X150194342Y-131751904D01*
X150194342Y-131751904D02*
X150003866Y-131799523D01*
X150003866Y-131799523D02*
X149765771Y-131799523D01*
X149765771Y-131799523D02*
X149575295Y-131751904D01*
X149575295Y-131751904D02*
X149480057Y-131704285D01*
X149480057Y-131704285D02*
X149432438Y-131656666D01*
X149432438Y-131656666D02*
X149384819Y-131561428D01*
X119513333Y-94444819D02*
X119180000Y-93968628D01*
X118941905Y-94444819D02*
X118941905Y-93444819D01*
X118941905Y-93444819D02*
X119322857Y-93444819D01*
X119322857Y-93444819D02*
X119418095Y-93492438D01*
X119418095Y-93492438D02*
X119465714Y-93540057D01*
X119465714Y-93540057D02*
X119513333Y-93635295D01*
X119513333Y-93635295D02*
X119513333Y-93778152D01*
X119513333Y-93778152D02*
X119465714Y-93873390D01*
X119465714Y-93873390D02*
X119418095Y-93921009D01*
X119418095Y-93921009D02*
X119322857Y-93968628D01*
X119322857Y-93968628D02*
X118941905Y-93968628D01*
X119846667Y-93444819D02*
X120465714Y-93444819D01*
X120465714Y-93444819D02*
X120132381Y-93825771D01*
X120132381Y-93825771D02*
X120275238Y-93825771D01*
X120275238Y-93825771D02*
X120370476Y-93873390D01*
X120370476Y-93873390D02*
X120418095Y-93921009D01*
X120418095Y-93921009D02*
X120465714Y-94016247D01*
X120465714Y-94016247D02*
X120465714Y-94254342D01*
X120465714Y-94254342D02*
X120418095Y-94349580D01*
X120418095Y-94349580D02*
X120370476Y-94397200D01*
X120370476Y-94397200D02*
X120275238Y-94444819D01*
X120275238Y-94444819D02*
X119989524Y-94444819D01*
X119989524Y-94444819D02*
X119894286Y-94397200D01*
X119894286Y-94397200D02*
X119846667Y-94349580D01*
X140884819Y-133132857D02*
X140408628Y-133466190D01*
X140884819Y-133704285D02*
X139884819Y-133704285D01*
X139884819Y-133704285D02*
X139884819Y-133323333D01*
X139884819Y-133323333D02*
X139932438Y-133228095D01*
X139932438Y-133228095D02*
X139980057Y-133180476D01*
X139980057Y-133180476D02*
X140075295Y-133132857D01*
X140075295Y-133132857D02*
X140218152Y-133132857D01*
X140218152Y-133132857D02*
X140313390Y-133180476D01*
X140313390Y-133180476D02*
X140361009Y-133228095D01*
X140361009Y-133228095D02*
X140408628Y-133323333D01*
X140408628Y-133323333D02*
X140408628Y-133704285D01*
X140884819Y-132180476D02*
X140884819Y-132751904D01*
X140884819Y-132466190D02*
X139884819Y-132466190D01*
X139884819Y-132466190D02*
X140027676Y-132561428D01*
X140027676Y-132561428D02*
X140122914Y-132656666D01*
X140122914Y-132656666D02*
X140170533Y-132751904D01*
X139884819Y-131275714D02*
X139884819Y-131751904D01*
X139884819Y-131751904D02*
X140361009Y-131799523D01*
X140361009Y-131799523D02*
X140313390Y-131751904D01*
X140313390Y-131751904D02*
X140265771Y-131656666D01*
X140265771Y-131656666D02*
X140265771Y-131418571D01*
X140265771Y-131418571D02*
X140313390Y-131323333D01*
X140313390Y-131323333D02*
X140361009Y-131275714D01*
X140361009Y-131275714D02*
X140456247Y-131228095D01*
X140456247Y-131228095D02*
X140694342Y-131228095D01*
X140694342Y-131228095D02*
X140789580Y-131275714D01*
X140789580Y-131275714D02*
X140837200Y-131323333D01*
X140837200Y-131323333D02*
X140884819Y-131418571D01*
X140884819Y-131418571D02*
X140884819Y-131656666D01*
X140884819Y-131656666D02*
X140837200Y-131751904D01*
X140837200Y-131751904D02*
X140789580Y-131799523D01*
X130384819Y-133132857D02*
X129908628Y-133466190D01*
X130384819Y-133704285D02*
X129384819Y-133704285D01*
X129384819Y-133704285D02*
X129384819Y-133323333D01*
X129384819Y-133323333D02*
X129432438Y-133228095D01*
X129432438Y-133228095D02*
X129480057Y-133180476D01*
X129480057Y-133180476D02*
X129575295Y-133132857D01*
X129575295Y-133132857D02*
X129718152Y-133132857D01*
X129718152Y-133132857D02*
X129813390Y-133180476D01*
X129813390Y-133180476D02*
X129861009Y-133228095D01*
X129861009Y-133228095D02*
X129908628Y-133323333D01*
X129908628Y-133323333D02*
X129908628Y-133704285D01*
X130384819Y-132180476D02*
X130384819Y-132751904D01*
X130384819Y-132466190D02*
X129384819Y-132466190D01*
X129384819Y-132466190D02*
X129527676Y-132561428D01*
X129527676Y-132561428D02*
X129622914Y-132656666D01*
X129622914Y-132656666D02*
X129670533Y-132751904D01*
X129718152Y-131323333D02*
X130384819Y-131323333D01*
X129337200Y-131561428D02*
X130051485Y-131799523D01*
X130051485Y-131799523D02*
X130051485Y-131180476D01*
X151076666Y-148144819D02*
X151076666Y-148859104D01*
X151076666Y-148859104D02*
X151029047Y-149001961D01*
X151029047Y-149001961D02*
X150933809Y-149097200D01*
X150933809Y-149097200D02*
X150790952Y-149144819D01*
X150790952Y-149144819D02*
X150695714Y-149144819D01*
X151457619Y-148144819D02*
X152076666Y-148144819D01*
X152076666Y-148144819D02*
X151743333Y-148525771D01*
X151743333Y-148525771D02*
X151886190Y-148525771D01*
X151886190Y-148525771D02*
X151981428Y-148573390D01*
X151981428Y-148573390D02*
X152029047Y-148621009D01*
X152029047Y-148621009D02*
X152076666Y-148716247D01*
X152076666Y-148716247D02*
X152076666Y-148954342D01*
X152076666Y-148954342D02*
X152029047Y-149049580D01*
X152029047Y-149049580D02*
X151981428Y-149097200D01*
X151981428Y-149097200D02*
X151886190Y-149144819D01*
X151886190Y-149144819D02*
X151600476Y-149144819D01*
X151600476Y-149144819D02*
X151505238Y-149097200D01*
X151505238Y-149097200D02*
X151457619Y-149049580D01*
D12*
X154249999Y-146821978D02*
X154249999Y-147421978D01*
X153964285Y-146821978D02*
X153964285Y-147421978D01*
X153964285Y-147421978D02*
X153821428Y-147421978D01*
X153821428Y-147421978D02*
X153735714Y-147393407D01*
X153735714Y-147393407D02*
X153678571Y-147336264D01*
X153678571Y-147336264D02*
X153650000Y-147279121D01*
X153650000Y-147279121D02*
X153621428Y-147164835D01*
X153621428Y-147164835D02*
X153621428Y-147079121D01*
X153621428Y-147079121D02*
X153650000Y-146964835D01*
X153650000Y-146964835D02*
X153678571Y-146907692D01*
X153678571Y-146907692D02*
X153735714Y-146850550D01*
X153735714Y-146850550D02*
X153821428Y-146821978D01*
X153821428Y-146821978D02*
X153964285Y-146821978D01*
X156947142Y-147393407D02*
X157004285Y-147421978D01*
X157004285Y-147421978D02*
X157089999Y-147421978D01*
X157089999Y-147421978D02*
X157175713Y-147393407D01*
X157175713Y-147393407D02*
X157232856Y-147336264D01*
X157232856Y-147336264D02*
X157261427Y-147279121D01*
X157261427Y-147279121D02*
X157289999Y-147164835D01*
X157289999Y-147164835D02*
X157289999Y-147079121D01*
X157289999Y-147079121D02*
X157261427Y-146964835D01*
X157261427Y-146964835D02*
X157232856Y-146907692D01*
X157232856Y-146907692D02*
X157175713Y-146850550D01*
X157175713Y-146850550D02*
X157089999Y-146821978D01*
X157089999Y-146821978D02*
X157032856Y-146821978D01*
X157032856Y-146821978D02*
X156947142Y-146850550D01*
X156947142Y-146850550D02*
X156918570Y-146879121D01*
X156918570Y-146879121D02*
X156918570Y-147079121D01*
X156918570Y-147079121D02*
X157032856Y-147079121D01*
X156661427Y-146821978D02*
X156661427Y-147421978D01*
X156661427Y-147421978D02*
X156318570Y-146821978D01*
X156318570Y-146821978D02*
X156318570Y-147421978D01*
X156032856Y-146821978D02*
X156032856Y-147421978D01*
X156032856Y-147421978D02*
X155889999Y-147421978D01*
X155889999Y-147421978D02*
X155804285Y-147393407D01*
X155804285Y-147393407D02*
X155747142Y-147336264D01*
X155747142Y-147336264D02*
X155718571Y-147279121D01*
X155718571Y-147279121D02*
X155689999Y-147164835D01*
X155689999Y-147164835D02*
X155689999Y-147079121D01*
X155689999Y-147079121D02*
X155718571Y-146964835D01*
X155718571Y-146964835D02*
X155747142Y-146907692D01*
X155747142Y-146907692D02*
X155804285Y-146850550D01*
X155804285Y-146850550D02*
X155889999Y-146821978D01*
X155889999Y-146821978D02*
X156032856Y-146821978D01*
X147344285Y-147421978D02*
X147144285Y-146821978D01*
X147144285Y-146821978D02*
X146944285Y-147421978D01*
X146544284Y-147136264D02*
X146458570Y-147107692D01*
X146458570Y-147107692D02*
X146429999Y-147079121D01*
X146429999Y-147079121D02*
X146401427Y-147021978D01*
X146401427Y-147021978D02*
X146401427Y-146936264D01*
X146401427Y-146936264D02*
X146429999Y-146879121D01*
X146429999Y-146879121D02*
X146458570Y-146850550D01*
X146458570Y-146850550D02*
X146515713Y-146821978D01*
X146515713Y-146821978D02*
X146744284Y-146821978D01*
X146744284Y-146821978D02*
X146744284Y-147421978D01*
X146744284Y-147421978D02*
X146544284Y-147421978D01*
X146544284Y-147421978D02*
X146487142Y-147393407D01*
X146487142Y-147393407D02*
X146458570Y-147364835D01*
X146458570Y-147364835D02*
X146429999Y-147307692D01*
X146429999Y-147307692D02*
X146429999Y-147250550D01*
X146429999Y-147250550D02*
X146458570Y-147193407D01*
X146458570Y-147193407D02*
X146487142Y-147164835D01*
X146487142Y-147164835D02*
X146544284Y-147136264D01*
X146544284Y-147136264D02*
X146744284Y-147136264D01*
X145887142Y-147221978D02*
X145887142Y-146821978D01*
X146144284Y-147221978D02*
X146144284Y-146907692D01*
X146144284Y-146907692D02*
X146115713Y-146850550D01*
X146115713Y-146850550D02*
X146058570Y-146821978D01*
X146058570Y-146821978D02*
X145972856Y-146821978D01*
X145972856Y-146821978D02*
X145915713Y-146850550D01*
X145915713Y-146850550D02*
X145887142Y-146879121D01*
X145629999Y-146850550D02*
X145572856Y-146821978D01*
X145572856Y-146821978D02*
X145458570Y-146821978D01*
X145458570Y-146821978D02*
X145401427Y-146850550D01*
X145401427Y-146850550D02*
X145372856Y-146907692D01*
X145372856Y-146907692D02*
X145372856Y-146936264D01*
X145372856Y-146936264D02*
X145401427Y-146993407D01*
X145401427Y-146993407D02*
X145458570Y-147021978D01*
X145458570Y-147021978D02*
X145544285Y-147021978D01*
X145544285Y-147021978D02*
X145601427Y-147050550D01*
X145601427Y-147050550D02*
X145629999Y-147107692D01*
X145629999Y-147107692D02*
X145629999Y-147136264D01*
X145629999Y-147136264D02*
X145601427Y-147193407D01*
X145601427Y-147193407D02*
X145544285Y-147221978D01*
X145544285Y-147221978D02*
X145458570Y-147221978D01*
X145458570Y-147221978D02*
X145401427Y-147193407D01*
X149398570Y-146821978D02*
X149398570Y-147421978D01*
X149398570Y-147421978D02*
X149255713Y-147421978D01*
X149255713Y-147421978D02*
X149169999Y-147393407D01*
X149169999Y-147393407D02*
X149112856Y-147336264D01*
X149112856Y-147336264D02*
X149084285Y-147279121D01*
X149084285Y-147279121D02*
X149055713Y-147164835D01*
X149055713Y-147164835D02*
X149055713Y-147079121D01*
X149055713Y-147079121D02*
X149084285Y-146964835D01*
X149084285Y-146964835D02*
X149112856Y-146907692D01*
X149112856Y-146907692D02*
X149169999Y-146850550D01*
X149169999Y-146850550D02*
X149255713Y-146821978D01*
X149255713Y-146821978D02*
X149398570Y-146821978D01*
X148798570Y-147050550D02*
X148341428Y-147050550D01*
X151938570Y-146821978D02*
X151938570Y-147421978D01*
X151938570Y-147421978D02*
X151795713Y-147421978D01*
X151795713Y-147421978D02*
X151709999Y-147393407D01*
X151709999Y-147393407D02*
X151652856Y-147336264D01*
X151652856Y-147336264D02*
X151624285Y-147279121D01*
X151624285Y-147279121D02*
X151595713Y-147164835D01*
X151595713Y-147164835D02*
X151595713Y-147079121D01*
X151595713Y-147079121D02*
X151624285Y-146964835D01*
X151624285Y-146964835D02*
X151652856Y-146907692D01*
X151652856Y-146907692D02*
X151709999Y-146850550D01*
X151709999Y-146850550D02*
X151795713Y-146821978D01*
X151795713Y-146821978D02*
X151938570Y-146821978D01*
X151338570Y-147050550D02*
X150881428Y-147050550D01*
X151109999Y-146821978D02*
X151109999Y-147279121D01*
D11*
X133884819Y-133132857D02*
X133408628Y-133466190D01*
X133884819Y-133704285D02*
X132884819Y-133704285D01*
X132884819Y-133704285D02*
X132884819Y-133323333D01*
X132884819Y-133323333D02*
X132932438Y-133228095D01*
X132932438Y-133228095D02*
X132980057Y-133180476D01*
X132980057Y-133180476D02*
X133075295Y-133132857D01*
X133075295Y-133132857D02*
X133218152Y-133132857D01*
X133218152Y-133132857D02*
X133313390Y-133180476D01*
X133313390Y-133180476D02*
X133361009Y-133228095D01*
X133361009Y-133228095D02*
X133408628Y-133323333D01*
X133408628Y-133323333D02*
X133408628Y-133704285D01*
X133884819Y-132180476D02*
X133884819Y-132751904D01*
X133884819Y-132466190D02*
X132884819Y-132466190D01*
X132884819Y-132466190D02*
X133027676Y-132561428D01*
X133027676Y-132561428D02*
X133122914Y-132656666D01*
X133122914Y-132656666D02*
X133170533Y-132751904D01*
X132884819Y-131323333D02*
X132884819Y-131513809D01*
X132884819Y-131513809D02*
X132932438Y-131609047D01*
X132932438Y-131609047D02*
X132980057Y-131656666D01*
X132980057Y-131656666D02*
X133122914Y-131751904D01*
X133122914Y-131751904D02*
X133313390Y-131799523D01*
X133313390Y-131799523D02*
X133694342Y-131799523D01*
X133694342Y-131799523D02*
X133789580Y-131751904D01*
X133789580Y-131751904D02*
X133837200Y-131704285D01*
X133837200Y-131704285D02*
X133884819Y-131609047D01*
X133884819Y-131609047D02*
X133884819Y-131418571D01*
X133884819Y-131418571D02*
X133837200Y-131323333D01*
X133837200Y-131323333D02*
X133789580Y-131275714D01*
X133789580Y-131275714D02*
X133694342Y-131228095D01*
X133694342Y-131228095D02*
X133456247Y-131228095D01*
X133456247Y-131228095D02*
X133361009Y-131275714D01*
X133361009Y-131275714D02*
X133313390Y-131323333D01*
X133313390Y-131323333D02*
X133265771Y-131418571D01*
X133265771Y-131418571D02*
X133265771Y-131609047D01*
X133265771Y-131609047D02*
X133313390Y-131704285D01*
X133313390Y-131704285D02*
X133361009Y-131751904D01*
X133361009Y-131751904D02*
X133456247Y-131799523D01*
X164263333Y-138749580D02*
X164215714Y-138797200D01*
X164215714Y-138797200D02*
X164072857Y-138844819D01*
X164072857Y-138844819D02*
X163977619Y-138844819D01*
X163977619Y-138844819D02*
X163834762Y-138797200D01*
X163834762Y-138797200D02*
X163739524Y-138701961D01*
X163739524Y-138701961D02*
X163691905Y-138606723D01*
X163691905Y-138606723D02*
X163644286Y-138416247D01*
X163644286Y-138416247D02*
X163644286Y-138273390D01*
X163644286Y-138273390D02*
X163691905Y-138082914D01*
X163691905Y-138082914D02*
X163739524Y-137987676D01*
X163739524Y-137987676D02*
X163834762Y-137892438D01*
X163834762Y-137892438D02*
X163977619Y-137844819D01*
X163977619Y-137844819D02*
X164072857Y-137844819D01*
X164072857Y-137844819D02*
X164215714Y-137892438D01*
X164215714Y-137892438D02*
X164263333Y-137940057D01*
X164834762Y-138273390D02*
X164739524Y-138225771D01*
X164739524Y-138225771D02*
X164691905Y-138178152D01*
X164691905Y-138178152D02*
X164644286Y-138082914D01*
X164644286Y-138082914D02*
X164644286Y-138035295D01*
X164644286Y-138035295D02*
X164691905Y-137940057D01*
X164691905Y-137940057D02*
X164739524Y-137892438D01*
X164739524Y-137892438D02*
X164834762Y-137844819D01*
X164834762Y-137844819D02*
X165025238Y-137844819D01*
X165025238Y-137844819D02*
X165120476Y-137892438D01*
X165120476Y-137892438D02*
X165168095Y-137940057D01*
X165168095Y-137940057D02*
X165215714Y-138035295D01*
X165215714Y-138035295D02*
X165215714Y-138082914D01*
X165215714Y-138082914D02*
X165168095Y-138178152D01*
X165168095Y-138178152D02*
X165120476Y-138225771D01*
X165120476Y-138225771D02*
X165025238Y-138273390D01*
X165025238Y-138273390D02*
X164834762Y-138273390D01*
X164834762Y-138273390D02*
X164739524Y-138321009D01*
X164739524Y-138321009D02*
X164691905Y-138368628D01*
X164691905Y-138368628D02*
X164644286Y-138463866D01*
X164644286Y-138463866D02*
X164644286Y-138654342D01*
X164644286Y-138654342D02*
X164691905Y-138749580D01*
X164691905Y-138749580D02*
X164739524Y-138797200D01*
X164739524Y-138797200D02*
X164834762Y-138844819D01*
X164834762Y-138844819D02*
X165025238Y-138844819D01*
X165025238Y-138844819D02*
X165120476Y-138797200D01*
X165120476Y-138797200D02*
X165168095Y-138749580D01*
X165168095Y-138749580D02*
X165215714Y-138654342D01*
X165215714Y-138654342D02*
X165215714Y-138463866D01*
X165215714Y-138463866D02*
X165168095Y-138368628D01*
X165168095Y-138368628D02*
X165120476Y-138321009D01*
X165120476Y-138321009D02*
X165025238Y-138273390D01*
D14*
%TO.C,C4*%
X144960000Y-55470000D02*
X148200000Y-55470000D01*
X144960000Y-62910000D02*
X144960000Y-55470000D01*
X144960000Y-62910000D02*
X148200000Y-62910000D01*
X148200000Y-62910000D02*
X148200000Y-55470000D01*
%TO.C,C6*%
X160117651Y-142675000D02*
X160917651Y-142675000D01*
X160517651Y-142275000D02*
X160517651Y-143075000D01*
X164527349Y-140910000D02*
X164527349Y-149070000D01*
X164567349Y-140910000D02*
X164567349Y-149070000D01*
X164607349Y-140910000D02*
X164607349Y-149070000D01*
X164647349Y-140911000D02*
X164647349Y-149069000D01*
X164687349Y-140913000D02*
X164687349Y-149067000D01*
X164727349Y-140914000D02*
X164727349Y-149066000D01*
X164767349Y-140916000D02*
X164767349Y-149064000D01*
X164807349Y-140919000D02*
X164807349Y-149061000D01*
X164847349Y-140922000D02*
X164847349Y-149058000D01*
X164887349Y-140925000D02*
X164887349Y-149055000D01*
X164927349Y-140929000D02*
X164927349Y-149051000D01*
X164967349Y-140933000D02*
X164967349Y-149047000D01*
X165007349Y-140938000D02*
X165007349Y-149042000D01*
X165047349Y-140942000D02*
X165047349Y-149038000D01*
X165087349Y-140948000D02*
X165087349Y-149032000D01*
X165127349Y-140953000D02*
X165127349Y-149027000D01*
X165167349Y-140960000D02*
X165167349Y-149020000D01*
X165207349Y-140966000D02*
X165207349Y-149014000D01*
X165248349Y-140973000D02*
X165248349Y-143950000D01*
X165248349Y-146030000D02*
X165248349Y-149007000D01*
X165288349Y-140980000D02*
X165288349Y-143950000D01*
X165288349Y-146030000D02*
X165288349Y-149000000D01*
X165328349Y-140988000D02*
X165328349Y-143950000D01*
X165328349Y-146030000D02*
X165328349Y-148992000D01*
X165368349Y-140996000D02*
X165368349Y-143950000D01*
X165368349Y-146030000D02*
X165368349Y-148984000D01*
X165408349Y-141005000D02*
X165408349Y-143950000D01*
X165408349Y-146030000D02*
X165408349Y-148975000D01*
X165448349Y-141014000D02*
X165448349Y-143950000D01*
X165448349Y-146030000D02*
X165448349Y-148966000D01*
X165488349Y-141023000D02*
X165488349Y-143950000D01*
X165488349Y-146030000D02*
X165488349Y-148957000D01*
X165528349Y-141033000D02*
X165528349Y-143950000D01*
X165528349Y-146030000D02*
X165528349Y-148947000D01*
X165568349Y-141043000D02*
X165568349Y-143950000D01*
X165568349Y-146030000D02*
X165568349Y-148937000D01*
X165608349Y-141054000D02*
X165608349Y-143950000D01*
X165608349Y-146030000D02*
X165608349Y-148926000D01*
X165648349Y-141065000D02*
X165648349Y-143950000D01*
X165648349Y-146030000D02*
X165648349Y-148915000D01*
X165688349Y-141076000D02*
X165688349Y-143950000D01*
X165688349Y-146030000D02*
X165688349Y-148904000D01*
X165728349Y-141088000D02*
X165728349Y-143950000D01*
X165728349Y-146030000D02*
X165728349Y-148892000D01*
X165768349Y-141101000D02*
X165768349Y-143950000D01*
X165768349Y-146030000D02*
X165768349Y-148879000D01*
X165808349Y-141113000D02*
X165808349Y-143950000D01*
X165808349Y-146030000D02*
X165808349Y-148867000D01*
X165848349Y-141127000D02*
X165848349Y-143950000D01*
X165848349Y-146030000D02*
X165848349Y-148853000D01*
X165888349Y-141140000D02*
X165888349Y-143950000D01*
X165888349Y-146030000D02*
X165888349Y-148840000D01*
X165928349Y-141155000D02*
X165928349Y-143950000D01*
X165928349Y-146030000D02*
X165928349Y-148825000D01*
X165968349Y-141169000D02*
X165968349Y-143950000D01*
X165968349Y-146030000D02*
X165968349Y-148811000D01*
X166008349Y-141185000D02*
X166008349Y-143950000D01*
X166008349Y-146030000D02*
X166008349Y-148795000D01*
X166048349Y-141200000D02*
X166048349Y-143950000D01*
X166048349Y-146030000D02*
X166048349Y-148780000D01*
X166088349Y-141216000D02*
X166088349Y-143950000D01*
X166088349Y-146030000D02*
X166088349Y-148764000D01*
X166128349Y-141233000D02*
X166128349Y-143950000D01*
X166128349Y-146030000D02*
X166128349Y-148747000D01*
X166168349Y-141250000D02*
X166168349Y-143950000D01*
X166168349Y-146030000D02*
X166168349Y-148730000D01*
X166208349Y-141268000D02*
X166208349Y-143950000D01*
X166208349Y-146030000D02*
X166208349Y-148712000D01*
X166248349Y-141286000D02*
X166248349Y-143950000D01*
X166248349Y-146030000D02*
X166248349Y-148694000D01*
X166288349Y-141304000D02*
X166288349Y-143950000D01*
X166288349Y-146030000D02*
X166288349Y-148676000D01*
X166328349Y-141324000D02*
X166328349Y-143950000D01*
X166328349Y-146030000D02*
X166328349Y-148656000D01*
X166368349Y-141343000D02*
X166368349Y-143950000D01*
X166368349Y-146030000D02*
X166368349Y-148637000D01*
X166408349Y-141363000D02*
X166408349Y-143950000D01*
X166408349Y-146030000D02*
X166408349Y-148617000D01*
X166448349Y-141384000D02*
X166448349Y-143950000D01*
X166448349Y-146030000D02*
X166448349Y-148596000D01*
X166488349Y-141406000D02*
X166488349Y-143950000D01*
X166488349Y-146030000D02*
X166488349Y-148574000D01*
X166528349Y-141428000D02*
X166528349Y-143950000D01*
X166528349Y-146030000D02*
X166528349Y-148552000D01*
X166568349Y-141450000D02*
X166568349Y-143950000D01*
X166568349Y-146030000D02*
X166568349Y-148530000D01*
X166608349Y-141473000D02*
X166608349Y-143950000D01*
X166608349Y-146030000D02*
X166608349Y-148507000D01*
X166648349Y-141497000D02*
X166648349Y-143950000D01*
X166648349Y-146030000D02*
X166648349Y-148483000D01*
X166688349Y-141521000D02*
X166688349Y-143950000D01*
X166688349Y-146030000D02*
X166688349Y-148459000D01*
X166728349Y-141546000D02*
X166728349Y-143950000D01*
X166728349Y-146030000D02*
X166728349Y-148434000D01*
X166768349Y-141572000D02*
X166768349Y-143950000D01*
X166768349Y-146030000D02*
X166768349Y-148408000D01*
X166808349Y-141598000D02*
X166808349Y-143950000D01*
X166808349Y-146030000D02*
X166808349Y-148382000D01*
X166848349Y-141625000D02*
X166848349Y-143950000D01*
X166848349Y-146030000D02*
X166848349Y-148355000D01*
X166888349Y-141652000D02*
X166888349Y-143950000D01*
X166888349Y-146030000D02*
X166888349Y-148328000D01*
X166928349Y-141681000D02*
X166928349Y-143950000D01*
X166928349Y-146030000D02*
X166928349Y-148299000D01*
X166968349Y-141710000D02*
X166968349Y-143950000D01*
X166968349Y-146030000D02*
X166968349Y-148270000D01*
X167008349Y-141740000D02*
X167008349Y-143950000D01*
X167008349Y-146030000D02*
X167008349Y-148240000D01*
X167048349Y-141770000D02*
X167048349Y-143950000D01*
X167048349Y-146030000D02*
X167048349Y-148210000D01*
X167088349Y-141801000D02*
X167088349Y-143950000D01*
X167088349Y-146030000D02*
X167088349Y-148179000D01*
X167128349Y-141834000D02*
X167128349Y-143950000D01*
X167128349Y-146030000D02*
X167128349Y-148146000D01*
X167168349Y-141866000D02*
X167168349Y-143950000D01*
X167168349Y-146030000D02*
X167168349Y-148114000D01*
X167208349Y-141900000D02*
X167208349Y-143950000D01*
X167208349Y-146030000D02*
X167208349Y-148080000D01*
X167248349Y-141935000D02*
X167248349Y-143950000D01*
X167248349Y-146030000D02*
X167248349Y-148045000D01*
X167288349Y-141971000D02*
X167288349Y-143950000D01*
X167288349Y-146030000D02*
X167288349Y-148009000D01*
X167328349Y-142007000D02*
X167328349Y-147973000D01*
X167368349Y-142045000D02*
X167368349Y-147935000D01*
X167408349Y-142083000D02*
X167408349Y-147897000D01*
X167448349Y-142123000D02*
X167448349Y-147857000D01*
X167488349Y-142164000D02*
X167488349Y-147816000D01*
X167528349Y-142206000D02*
X167528349Y-147774000D01*
X167568349Y-142249000D02*
X167568349Y-147731000D01*
X167608349Y-142293000D02*
X167608349Y-147687000D01*
X167648349Y-142339000D02*
X167648349Y-147641000D01*
X167688349Y-142386000D02*
X167688349Y-147594000D01*
X167728349Y-142434000D02*
X167728349Y-147546000D01*
X167768349Y-142485000D02*
X167768349Y-147495000D01*
X167808349Y-142536000D02*
X167808349Y-147444000D01*
X167848349Y-142590000D02*
X167848349Y-147390000D01*
X167888349Y-142645000D02*
X167888349Y-147335000D01*
X167928349Y-142703000D02*
X167928349Y-147277000D01*
X167968349Y-142762000D02*
X167968349Y-147218000D01*
X168008349Y-142824000D02*
X168008349Y-147156000D01*
X168048349Y-142888000D02*
X168048349Y-147092000D01*
X168088349Y-142956000D02*
X168088349Y-147024000D01*
X168128349Y-143026000D02*
X168128349Y-146954000D01*
X168168349Y-143100000D02*
X168168349Y-146880000D01*
X168208349Y-143177000D02*
X168208349Y-146803000D01*
X168248349Y-143259000D02*
X168248349Y-146721000D01*
X168288349Y-143345000D02*
X168288349Y-146635000D01*
X168328349Y-143438000D02*
X168328349Y-146542000D01*
X168368349Y-143537000D02*
X168368349Y-146443000D01*
X168408349Y-143644000D02*
X168408349Y-146336000D01*
X168448349Y-143761000D02*
X168448349Y-146219000D01*
X168488349Y-143892000D02*
X168488349Y-146088000D01*
X168528349Y-144042000D02*
X168528349Y-145938000D01*
X168568349Y-144222000D02*
X168568349Y-145758000D01*
X168608349Y-144457000D02*
X168608349Y-145523000D01*
X168647349Y-144990000D02*
G75*
G02*
X160407349Y-144990000I-4120000J0D01*
G01*
X160407349Y-144990000D02*
G75*
G02*
X168647349Y-144990000I4120000J0D01*
G01*
%TO.C,R13*%
X135560000Y-129220000D02*
X135890000Y-129220000D01*
X135560000Y-135760000D02*
X135560000Y-129220000D01*
X135890000Y-135760000D02*
X135560000Y-135760000D01*
X137970000Y-135760000D02*
X138300000Y-135760000D01*
X138300000Y-129220000D02*
X137970000Y-129220000D01*
X138300000Y-135760000D02*
X138300000Y-129220000D01*
%TO.C,C5*%
X140310000Y-55470000D02*
X143550000Y-55470000D01*
X140310000Y-62910000D02*
X140310000Y-55470000D01*
X140310000Y-62910000D02*
X143550000Y-62910000D01*
X143550000Y-62910000D02*
X143550000Y-55470000D01*
%TO.C,R2*%
X115060000Y-129220000D02*
X115390000Y-129220000D01*
X115060000Y-135760000D02*
X115060000Y-129220000D01*
X115390000Y-135760000D02*
X115060000Y-135760000D01*
X117470000Y-135760000D02*
X117800000Y-135760000D01*
X117800000Y-129220000D02*
X117470000Y-129220000D01*
X117800000Y-135760000D02*
X117800000Y-129220000D01*
%TO.C,R12*%
X111560000Y-129220000D02*
X111890000Y-129220000D01*
X111560000Y-135760000D02*
X111560000Y-129220000D01*
X111890000Y-135760000D02*
X111560000Y-135760000D01*
X113970000Y-135760000D02*
X114300000Y-135760000D01*
X114300000Y-129220000D02*
X113970000Y-129220000D01*
X114300000Y-135760000D02*
X114300000Y-129220000D01*
%TO.C,C1*%
X151810000Y-109070000D02*
X151810000Y-116510000D01*
X155050000Y-109070000D02*
X151810000Y-109070000D01*
X155050000Y-109070000D02*
X155050000Y-116510000D01*
X155050000Y-116510000D02*
X151810000Y-116510000D01*
%TO.C,C2*%
X111485000Y-138875000D02*
X111485000Y-142115000D01*
X111485000Y-138875000D02*
X118925000Y-138875000D01*
X111485000Y-142115000D02*
X118925000Y-142115000D01*
X118925000Y-138875000D02*
X118925000Y-142115000D01*
%TO.C,J1*%
X111260000Y-143690000D02*
X124560000Y-143690000D01*
X111260000Y-151490000D02*
X111260000Y-143690000D01*
X124560000Y-143690000D02*
X124560000Y-151490000D01*
%TO.C,C9*%
X128710000Y-138865000D02*
X128710000Y-142105000D01*
X128710000Y-138865000D02*
X136150000Y-138865000D01*
X128710000Y-142105000D02*
X136150000Y-142105000D01*
X136150000Y-138865000D02*
X136150000Y-142105000D01*
%TO.C,J20*%
X163100000Y-132945000D02*
X163100000Y-127805000D01*
X165760000Y-127805000D02*
X163100000Y-127805000D01*
X165760000Y-132945000D02*
X163100000Y-132945000D01*
X165760000Y-132945000D02*
X165760000Y-127805000D01*
X165760000Y-134215000D02*
X165760000Y-135545000D01*
X165760000Y-135545000D02*
X164430000Y-135545000D01*
%TO.C,U1*%
X132060000Y-110030000D02*
X132060000Y-111680000D01*
X132060000Y-113680000D02*
X132060000Y-115330000D01*
X132060000Y-115330000D02*
X149960000Y-115330000D01*
X149960000Y-110030000D02*
X132060000Y-110030000D01*
X149960000Y-115330000D02*
X149960000Y-110030000D01*
X132060000Y-111680000D02*
G75*
G02*
X132060000Y-113680000I0J-1000000D01*
G01*
%TO.C,C7*%
X150510000Y-96310000D02*
X150510000Y-93070000D01*
X157950000Y-93070000D02*
X150510000Y-93070000D01*
X157950000Y-96310000D02*
X150510000Y-96310000D01*
X157950000Y-96310000D02*
X157950000Y-93070000D01*
%TO.C,C10*%
X145230000Y-138865000D02*
X145230000Y-142105000D01*
X145230000Y-138865000D02*
X152670000Y-138865000D01*
X145230000Y-142105000D02*
X152670000Y-142105000D01*
X152670000Y-138865000D02*
X152670000Y-142105000D01*
%TO.C,R17*%
X152060000Y-129220000D02*
X152390000Y-129220000D01*
X152060000Y-135760000D02*
X152060000Y-129220000D01*
X152390000Y-135760000D02*
X152060000Y-135760000D01*
X154470000Y-135760000D02*
X154800000Y-135760000D01*
X154800000Y-129220000D02*
X154470000Y-129220000D01*
X154800000Y-135760000D02*
X154800000Y-129220000D01*
%TO.C,R19*%
X155560000Y-129220000D02*
X155890000Y-129220000D01*
X155560000Y-135760000D02*
X155560000Y-129220000D01*
X155890000Y-135760000D02*
X155560000Y-135760000D01*
X157970000Y-135760000D02*
X158300000Y-135760000D01*
X158300000Y-129220000D02*
X157970000Y-129220000D01*
X158300000Y-135760000D02*
X158300000Y-129220000D01*
%TO.C,JP1*%
X120325000Y-141825000D02*
X120325000Y-140495000D01*
X121655000Y-141825000D02*
X120325000Y-141825000D01*
X122925000Y-139165000D02*
X125525000Y-139165000D01*
X122925000Y-141825000D02*
X122925000Y-139165000D01*
X122925000Y-141825000D02*
X125525000Y-141825000D01*
X125525000Y-141825000D02*
X125525000Y-139165000D01*
%TO.C,R1*%
X122060000Y-129220000D02*
X122390000Y-129220000D01*
X122060000Y-135760000D02*
X122060000Y-129220000D01*
X122390000Y-135760000D02*
X122060000Y-135760000D01*
X124470000Y-135760000D02*
X124800000Y-135760000D01*
X124800000Y-129220000D02*
X124470000Y-129220000D01*
X124800000Y-135760000D02*
X124800000Y-129220000D01*
%TO.C,U3*%
X115080000Y-89940000D02*
X115080000Y-65940000D01*
X116350000Y-69050000D02*
X121430000Y-69050000D01*
X116350000Y-86830000D02*
X116350000Y-69050000D01*
X117080000Y-91940000D02*
X164580000Y-91940000D01*
X117112000Y-70320000D02*
X120668000Y-70320000D01*
X117112000Y-72860000D02*
X120668000Y-72860000D01*
X117112000Y-75400000D02*
X117112000Y-70320000D01*
X117112000Y-77940000D02*
X119144000Y-77940000D01*
X117112000Y-80480000D02*
X117112000Y-77940000D01*
X117112000Y-83020000D02*
X119144000Y-83020000D01*
X117112000Y-85560000D02*
X117112000Y-83020000D01*
X119144000Y-75400000D02*
X117112000Y-75400000D01*
X119144000Y-77940000D02*
X119144000Y-75400000D01*
X119144000Y-80480000D02*
X117112000Y-80480000D01*
X119144000Y-83020000D02*
X119144000Y-80480000D01*
X120668000Y-85560000D02*
X117112000Y-85560000D01*
X121430000Y-69050000D02*
X121430000Y-86830000D01*
X121430000Y-86830000D02*
X116350000Y-86830000D01*
X122080000Y-70440000D02*
X140080000Y-70440000D01*
X122080000Y-85440000D02*
X122080000Y-70440000D01*
X140080000Y-70440000D02*
X140080000Y-85440000D01*
X140080000Y-85440000D02*
X122080000Y-85440000D01*
X160580000Y-73940000D02*
X166580000Y-73940000D01*
X160580000Y-81940000D02*
X160580000Y-73940000D01*
X160580000Y-81940000D02*
X166580000Y-81940000D01*
X162070000Y-69050000D02*
X165880000Y-69050000D01*
X162070000Y-71590000D02*
X162070000Y-69050000D01*
X162070000Y-84290000D02*
X165880000Y-84290000D01*
X162070000Y-86830000D02*
X162070000Y-84290000D01*
X164580000Y-63940000D02*
X117080000Y-63940000D01*
X165880000Y-69050000D02*
X165880000Y-71590000D01*
X165880000Y-71590000D02*
X162070000Y-71590000D01*
X165880000Y-84290000D02*
X165880000Y-86830000D01*
X165880000Y-86830000D02*
X162070000Y-86830000D01*
X166580000Y-89940000D02*
X166580000Y-65940000D01*
X115080000Y-65940000D02*
G75*
G02*
X117080000Y-63940000I2000000J0D01*
G01*
X117080000Y-91940000D02*
G75*
G02*
X115080000Y-89940000I-1J1999999D01*
G01*
X164580000Y-63940000D02*
G75*
G02*
X166580000Y-65940000I0J-2000000D01*
G01*
X166580000Y-89940000D02*
G75*
G02*
X164580000Y-91940000I-1999999J-1D01*
G01*
X118580000Y-66240000D02*
G75*
G02*
X115580000Y-66240000I-1500000J0D01*
G01*
X115580000Y-66240000D02*
G75*
G02*
X118580000Y-66240000I1500000J0D01*
G01*
X118580000Y-89640000D02*
G75*
G02*
X115580000Y-89640000I-1500000J0D01*
G01*
X115580000Y-89640000D02*
G75*
G02*
X118580000Y-89640000I1500000J0D01*
G01*
D15*
X138340000Y-83020000D02*
G75*
G02*
X137540000Y-83020000I-400000J0D01*
G01*
X137540000Y-83020000D02*
G75*
G02*
X138340000Y-83020000I400000J0D01*
G01*
D16*
X164275000Y-70320000D02*
G75*
G02*
X163675000Y-70320000I-300000J0D01*
G01*
X163675000Y-70320000D02*
G75*
G02*
X164275000Y-70320000I300000J0D01*
G01*
X164275000Y-85560000D02*
G75*
G02*
X163675000Y-85560000I-300000J0D01*
G01*
X163675000Y-85560000D02*
G75*
G02*
X164275000Y-85560000I300000J0D01*
G01*
D14*
X166080000Y-66240000D02*
G75*
G02*
X163080000Y-66240000I-1500000J0D01*
G01*
X163080000Y-66240000D02*
G75*
G02*
X166080000Y-66240000I1500000J0D01*
G01*
X166080000Y-89640000D02*
G75*
G02*
X163080000Y-89640000I-1500000J0D01*
G01*
X163080000Y-89640000D02*
G75*
G02*
X166080000Y-89640000I1500000J0D01*
G01*
%TO.C,R11*%
X118560000Y-129220000D02*
X118890000Y-129220000D01*
X118560000Y-135760000D02*
X118560000Y-129220000D01*
X118890000Y-135760000D02*
X118560000Y-135760000D01*
X120970000Y-135760000D02*
X121300000Y-135760000D01*
X121300000Y-129220000D02*
X120970000Y-129220000D01*
X121300000Y-135760000D02*
X121300000Y-129220000D01*
%TO.C,R18*%
X145060000Y-129220000D02*
X145390000Y-129220000D01*
X145060000Y-135760000D02*
X145060000Y-129220000D01*
X145390000Y-135760000D02*
X145060000Y-135760000D01*
X147470000Y-135760000D02*
X147800000Y-135760000D01*
X147800000Y-129220000D02*
X147470000Y-129220000D01*
X147800000Y-135760000D02*
X147800000Y-129220000D01*
%TO.C,JP3*%
X154325000Y-141825000D02*
X154325000Y-140495000D01*
X155655000Y-141825000D02*
X154325000Y-141825000D01*
X156925000Y-139165000D02*
X159525000Y-139165000D01*
X156925000Y-141825000D02*
X156925000Y-139165000D01*
X156925000Y-141825000D02*
X159525000Y-141825000D01*
X159525000Y-141825000D02*
X159525000Y-139165000D01*
%TO.C,R4*%
X116410000Y-96120000D02*
X116410000Y-96450000D01*
X116410000Y-98860000D02*
X116410000Y-98530000D01*
X122950000Y-96120000D02*
X116410000Y-96120000D01*
X122950000Y-96450000D02*
X122950000Y-96120000D01*
X122950000Y-98530000D02*
X122950000Y-98860000D01*
X122950000Y-98860000D02*
X116410000Y-98860000D01*
%TO.C,J2*%
X128260000Y-143690000D02*
X141560000Y-143690000D01*
X128260000Y-151490000D02*
X128260000Y-143690000D01*
X141560000Y-143690000D02*
X141560000Y-151490000D01*
%TO.C,C11*%
X149250000Y-59110000D02*
X157410000Y-59110000D01*
X149250000Y-59150000D02*
X157410000Y-59150000D01*
X149250000Y-59190000D02*
X157410000Y-59190000D01*
X149251000Y-59070000D02*
X157409000Y-59070000D01*
X149253000Y-59030000D02*
X157407000Y-59030000D01*
X149254000Y-58990000D02*
X157406000Y-58990000D01*
X149256000Y-58950000D02*
X157404000Y-58950000D01*
X149259000Y-58910000D02*
X157401000Y-58910000D01*
X149262000Y-58870000D02*
X157398000Y-58870000D01*
X149265000Y-58830000D02*
X157395000Y-58830000D01*
X149269000Y-58790000D02*
X157391000Y-58790000D01*
X149273000Y-58750000D02*
X157387000Y-58750000D01*
X149278000Y-58710000D02*
X157382000Y-58710000D01*
X149282000Y-58670000D02*
X157378000Y-58670000D01*
X149288000Y-58630000D02*
X157372000Y-58630000D01*
X149293000Y-58590000D02*
X157367000Y-58590000D01*
X149300000Y-58550000D02*
X157360000Y-58550000D01*
X149306000Y-58510000D02*
X157354000Y-58510000D01*
X149313000Y-58469000D02*
X152290000Y-58469000D01*
X149320000Y-58429000D02*
X152290000Y-58429000D01*
X149328000Y-58389000D02*
X152290000Y-58389000D01*
X149336000Y-58349000D02*
X152290000Y-58349000D01*
X149345000Y-58309000D02*
X152290000Y-58309000D01*
X149354000Y-58269000D02*
X152290000Y-58269000D01*
X149363000Y-58229000D02*
X152290000Y-58229000D01*
X149373000Y-58189000D02*
X152290000Y-58189000D01*
X149383000Y-58149000D02*
X152290000Y-58149000D01*
X149394000Y-58109000D02*
X152290000Y-58109000D01*
X149405000Y-58069000D02*
X152290000Y-58069000D01*
X149416000Y-58029000D02*
X152290000Y-58029000D01*
X149428000Y-57989000D02*
X152290000Y-57989000D01*
X149441000Y-57949000D02*
X152290000Y-57949000D01*
X149453000Y-57909000D02*
X152290000Y-57909000D01*
X149467000Y-57869000D02*
X152290000Y-57869000D01*
X149480000Y-57829000D02*
X152290000Y-57829000D01*
X149495000Y-57789000D02*
X152290000Y-57789000D01*
X149509000Y-57749000D02*
X152290000Y-57749000D01*
X149525000Y-57709000D02*
X152290000Y-57709000D01*
X149540000Y-57669000D02*
X152290000Y-57669000D01*
X149556000Y-57629000D02*
X152290000Y-57629000D01*
X149573000Y-57589000D02*
X152290000Y-57589000D01*
X149590000Y-57549000D02*
X152290000Y-57549000D01*
X149608000Y-57509000D02*
X152290000Y-57509000D01*
X149626000Y-57469000D02*
X152290000Y-57469000D01*
X149644000Y-57429000D02*
X152290000Y-57429000D01*
X149664000Y-57389000D02*
X152290000Y-57389000D01*
X149683000Y-57349000D02*
X152290000Y-57349000D01*
X149703000Y-57309000D02*
X152290000Y-57309000D01*
X149724000Y-57269000D02*
X152290000Y-57269000D01*
X149746000Y-57229000D02*
X152290000Y-57229000D01*
X149768000Y-57189000D02*
X152290000Y-57189000D01*
X149790000Y-57149000D02*
X152290000Y-57149000D01*
X149813000Y-57109000D02*
X152290000Y-57109000D01*
X149837000Y-57069000D02*
X152290000Y-57069000D01*
X149861000Y-57029000D02*
X152290000Y-57029000D01*
X149886000Y-56989000D02*
X152290000Y-56989000D01*
X149912000Y-56949000D02*
X152290000Y-56949000D01*
X149938000Y-56909000D02*
X152290000Y-56909000D01*
X149965000Y-56869000D02*
X152290000Y-56869000D01*
X149992000Y-56829000D02*
X152290000Y-56829000D01*
X150021000Y-56789000D02*
X152290000Y-56789000D01*
X150050000Y-56749000D02*
X152290000Y-56749000D01*
X150080000Y-56709000D02*
X152290000Y-56709000D01*
X150110000Y-56669000D02*
X152290000Y-56669000D01*
X150141000Y-56629000D02*
X152290000Y-56629000D01*
X150174000Y-56589000D02*
X152290000Y-56589000D01*
X150206000Y-56549000D02*
X152290000Y-56549000D01*
X150240000Y-56509000D02*
X152290000Y-56509000D01*
X150275000Y-56469000D02*
X152290000Y-56469000D01*
X150311000Y-56429000D02*
X152290000Y-56429000D01*
X150347000Y-56389000D02*
X156313000Y-56389000D01*
X150385000Y-56349000D02*
X156275000Y-56349000D01*
X150423000Y-56309000D02*
X156237000Y-56309000D01*
X150463000Y-56269000D02*
X156197000Y-56269000D01*
X150504000Y-56229000D02*
X156156000Y-56229000D01*
X150546000Y-56189000D02*
X156114000Y-56189000D01*
X150589000Y-56149000D02*
X156071000Y-56149000D01*
X150615000Y-63199698D02*
X151415000Y-63199698D01*
X150633000Y-56109000D02*
X156027000Y-56109000D01*
X150679000Y-56069000D02*
X155981000Y-56069000D01*
X150726000Y-56029000D02*
X155934000Y-56029000D01*
X150774000Y-55989000D02*
X155886000Y-55989000D01*
X150825000Y-55949000D02*
X155835000Y-55949000D01*
X150876000Y-55909000D02*
X155784000Y-55909000D01*
X150930000Y-55869000D02*
X155730000Y-55869000D01*
X150985000Y-55829000D02*
X155675000Y-55829000D01*
X151015000Y-63599698D02*
X151015000Y-62799698D01*
X151043000Y-55789000D02*
X155617000Y-55789000D01*
X151102000Y-55749000D02*
X155558000Y-55749000D01*
X151164000Y-55709000D02*
X155496000Y-55709000D01*
X151228000Y-55669000D02*
X155432000Y-55669000D01*
X151296000Y-55629000D02*
X155364000Y-55629000D01*
X151366000Y-55589000D02*
X155294000Y-55589000D01*
X151440000Y-55549000D02*
X155220000Y-55549000D01*
X151517000Y-55509000D02*
X155143000Y-55509000D01*
X151599000Y-55469000D02*
X155061000Y-55469000D01*
X151685000Y-55429000D02*
X154975000Y-55429000D01*
X151778000Y-55389000D02*
X154882000Y-55389000D01*
X151877000Y-55349000D02*
X154783000Y-55349000D01*
X151984000Y-55309000D02*
X154676000Y-55309000D01*
X152101000Y-55269000D02*
X154559000Y-55269000D01*
X152232000Y-55229000D02*
X154428000Y-55229000D01*
X152382000Y-55189000D02*
X154278000Y-55189000D01*
X152562000Y-55149000D02*
X154098000Y-55149000D01*
X152797000Y-55109000D02*
X153863000Y-55109000D01*
X154370000Y-56429000D02*
X156349000Y-56429000D01*
X154370000Y-56469000D02*
X156385000Y-56469000D01*
X154370000Y-56509000D02*
X156420000Y-56509000D01*
X154370000Y-56549000D02*
X156454000Y-56549000D01*
X154370000Y-56589000D02*
X156486000Y-56589000D01*
X154370000Y-56629000D02*
X156519000Y-56629000D01*
X154370000Y-56669000D02*
X156550000Y-56669000D01*
X154370000Y-56709000D02*
X156580000Y-56709000D01*
X154370000Y-56749000D02*
X156610000Y-56749000D01*
X154370000Y-56789000D02*
X156639000Y-56789000D01*
X154370000Y-56829000D02*
X156668000Y-56829000D01*
X154370000Y-56869000D02*
X156695000Y-56869000D01*
X154370000Y-56909000D02*
X156722000Y-56909000D01*
X154370000Y-56949000D02*
X156748000Y-56949000D01*
X154370000Y-56989000D02*
X156774000Y-56989000D01*
X154370000Y-57029000D02*
X156799000Y-57029000D01*
X154370000Y-57069000D02*
X156823000Y-57069000D01*
X154370000Y-57109000D02*
X156847000Y-57109000D01*
X154370000Y-57149000D02*
X156870000Y-57149000D01*
X154370000Y-57189000D02*
X156892000Y-57189000D01*
X154370000Y-57229000D02*
X156914000Y-57229000D01*
X154370000Y-57269000D02*
X156936000Y-57269000D01*
X154370000Y-57309000D02*
X156957000Y-57309000D01*
X154370000Y-57349000D02*
X156977000Y-57349000D01*
X154370000Y-57389000D02*
X156996000Y-57389000D01*
X154370000Y-57429000D02*
X157016000Y-57429000D01*
X154370000Y-57469000D02*
X157034000Y-57469000D01*
X154370000Y-57509000D02*
X157052000Y-57509000D01*
X154370000Y-57549000D02*
X157070000Y-57549000D01*
X154370000Y-57589000D02*
X157087000Y-57589000D01*
X154370000Y-57629000D02*
X157104000Y-57629000D01*
X154370000Y-57669000D02*
X157120000Y-57669000D01*
X154370000Y-57709000D02*
X157135000Y-57709000D01*
X154370000Y-57749000D02*
X157151000Y-57749000D01*
X154370000Y-57789000D02*
X157165000Y-57789000D01*
X154370000Y-57829000D02*
X157180000Y-57829000D01*
X154370000Y-57869000D02*
X157193000Y-57869000D01*
X154370000Y-57909000D02*
X157207000Y-57909000D01*
X154370000Y-57949000D02*
X157219000Y-57949000D01*
X154370000Y-57989000D02*
X157232000Y-57989000D01*
X154370000Y-58029000D02*
X157244000Y-58029000D01*
X154370000Y-58069000D02*
X157255000Y-58069000D01*
X154370000Y-58109000D02*
X157266000Y-58109000D01*
X154370000Y-58149000D02*
X157277000Y-58149000D01*
X154370000Y-58189000D02*
X157287000Y-58189000D01*
X154370000Y-58229000D02*
X157297000Y-58229000D01*
X154370000Y-58269000D02*
X157306000Y-58269000D01*
X154370000Y-58309000D02*
X157315000Y-58309000D01*
X154370000Y-58349000D02*
X157324000Y-58349000D01*
X154370000Y-58389000D02*
X157332000Y-58389000D01*
X154370000Y-58429000D02*
X157340000Y-58429000D01*
X154370000Y-58469000D02*
X157347000Y-58469000D01*
X157450000Y-59190000D02*
G75*
G02*
X149210000Y-59190000I-4120000J0D01*
G01*
X149210000Y-59190000D02*
G75*
G02*
X157450000Y-59190000I4120000J0D01*
G01*
%TO.C,JP2*%
X137600000Y-141820000D02*
X137600000Y-140490000D01*
X138930000Y-141820000D02*
X137600000Y-141820000D01*
X140200000Y-139160000D02*
X142800000Y-139160000D01*
X140200000Y-141820000D02*
X140200000Y-139160000D01*
X140200000Y-141820000D02*
X142800000Y-141820000D01*
X142800000Y-141820000D02*
X142800000Y-139160000D01*
%TO.C,TB1*%
X159980000Y-149890000D02*
X159980000Y-154490000D01*
X159980000Y-154490000D02*
X167880000Y-154490000D01*
X167880000Y-149890000D02*
X159980000Y-149890000D01*
X167880000Y-154490000D02*
X167880000Y-149890000D01*
%TO.C,R20*%
X148560000Y-129220000D02*
X148890000Y-129220000D01*
X148560000Y-135760000D02*
X148560000Y-129220000D01*
X148890000Y-135760000D02*
X148560000Y-135760000D01*
X150970000Y-135760000D02*
X151300000Y-135760000D01*
X151300000Y-129220000D02*
X150970000Y-129220000D01*
X151300000Y-135760000D02*
X151300000Y-129220000D01*
%TO.C,R3*%
X116410000Y-92620000D02*
X122950000Y-92620000D01*
X116410000Y-92950000D02*
X116410000Y-92620000D01*
X116410000Y-95030000D02*
X116410000Y-95360000D01*
X116410000Y-95360000D02*
X122950000Y-95360000D01*
X122950000Y-92620000D02*
X122950000Y-92950000D01*
X122950000Y-95360000D02*
X122950000Y-95030000D01*
%TO.C,R15*%
X139060000Y-129220000D02*
X139390000Y-129220000D01*
X139060000Y-135760000D02*
X139060000Y-129220000D01*
X139390000Y-135760000D02*
X139060000Y-135760000D01*
X141470000Y-135760000D02*
X141800000Y-135760000D01*
X141800000Y-129220000D02*
X141470000Y-129220000D01*
X141800000Y-135760000D02*
X141800000Y-129220000D01*
%TO.C,R14*%
X128560000Y-129220000D02*
X128890000Y-129220000D01*
X128560000Y-135760000D02*
X128560000Y-129220000D01*
X128890000Y-135760000D02*
X128560000Y-135760000D01*
X130970000Y-135760000D02*
X131300000Y-135760000D01*
X131300000Y-129220000D02*
X130970000Y-129220000D01*
X131300000Y-135760000D02*
X131300000Y-129220000D01*
%TO.C,J3*%
X144760000Y-143690000D02*
X158060000Y-143690000D01*
X144760000Y-151490000D02*
X144760000Y-143690000D01*
X158060000Y-143690000D02*
X158060000Y-151490000D01*
%TO.C,R16*%
X132060000Y-129220000D02*
X132390000Y-129220000D01*
X132060000Y-135760000D02*
X132060000Y-129220000D01*
X132390000Y-135760000D02*
X132060000Y-135760000D01*
X134470000Y-135760000D02*
X134800000Y-135760000D01*
X134800000Y-129220000D02*
X134470000Y-129220000D01*
X134800000Y-135760000D02*
X134800000Y-129220000D01*
%TO.C,C8*%
X160710000Y-136770000D02*
X160710000Y-140010000D01*
X160710000Y-136770000D02*
X168150000Y-136770000D01*
X160710000Y-140010000D02*
X168150000Y-140010000D01*
X168150000Y-136770000D02*
X168150000Y-140010000D01*
%TD*%
M02*
